<svg width="7191" height="968" xmlns="http://www.w3.org/2000/svg" xmlns:xlink="http://www.w3.org/1999/xlink" overflow="hidden"><defs><clipPath id="clip0"><rect x="644" y="1221" width="7191" height="968"/></clipPath><clipPath id="clip1"><rect x="645" y="1221" width="7187" height="965"/></clipPath><clipPath id="clip2"><rect x="645" y="1221" width="7187" height="965"/></clipPath><clipPath id="clip3"><rect x="645" y="1221" width="7187" height="965"/></clipPath><clipPath id="clip4"><rect x="645" y="1221" width="7187" height="965"/></clipPath><clipPath id="clip5"><rect x="645" y="1221" width="7187" height="965"/></clipPath><clipPath id="clip6"><rect x="645" y="1221" width="7187" height="965"/></clipPath><clipPath id="clip7"><rect x="645" y="1221" width="7187" height="965"/></clipPath><clipPath id="clip8"><rect x="645" y="1221" width="7187" height="965"/></clipPath><clipPath id="clip9"><rect x="645" y="1221" width="7187" height="965"/></clipPath><clipPath id="clip10"><rect x="645" y="1221" width="7187" height="965"/></clipPath><clipPath id="clip11"><rect x="645" y="1221" width="7187" height="965"/></clipPath><clipPath id="clip12"><rect x="645" y="1221" width="7187" height="965"/></clipPath><clipPath id="clip13"><rect x="645" y="1221" width="7187" height="965"/></clipPath><clipPath id="clip14"><rect x="645" y="1221" width="7187" height="965"/></clipPath><clipPath id="clip15"><rect x="645" y="1221" width="7187" height="965"/></clipPath><clipPath id="clip16"><rect x="645" y="1221" width="7187" height="965"/></clipPath><clipPath id="clip17"><rect x="645" y="1221" width="7187" height="965"/></clipPath><clipPath id="clip18"><rect x="645" y="1221" width="7187" height="965"/></clipPath><clipPath id="clip19"><rect x="645" y="1221" width="7187" height="965"/></clipPath><clipPath id="clip20"><rect x="645" y="1221" width="7187" height="965"/></clipPath><clipPath id="clip21"><rect x="645" y="1221" width="7187" height="965"/></clipPath><clipPath id="clip22"><rect x="645" y="1221" width="7187" height="965"/></clipPath><clipPath id="clip23"><rect x="645" y="1221" width="7187" height="965"/></clipPath><clipPath id="clip24"><rect x="645" y="1221" width="7187" height="965"/></clipPath><clipPath id="clip25"><rect x="645" y="1221" width="7187" height="965"/></clipPath><clipPath id="clip26"><rect x="645" y="1221" width="7187" height="965"/></clipPath></defs><g clip-path="url(#clip0)" transform="translate(-644 -1221)"><rect x="645" y="1222" width="7188" height="965" fill="#FFFFFF"/><g clip-path="url(#clip1)"><path d="M868.5 1898.56 7729.5 1898.56M868.5 1820.56 7729.5 1820.56M868.5 1742.56 7729.5 1742.56M868.5 1663.55 7729.5 1663.55M868.5 1585.55 7729.5 1585.55M868.5 1507.55 7729.5 1507.55M868.5 1428.55 7729.5 1428.55M868.5 1350.54 7729.5 1350.54M868.5 1272.5 7729.5 1272.5" stroke="#D9D9D9" stroke-width="3.4375" stroke-linejoin="round" stroke-miterlimit="10" fill="none"/></g><g clip-path="url(#clip2)"><path d="M1726.56 1272.5 1726.56 1977.5M2584.58 1272.5 2584.58 1977.5M3441.61 1272.5 3441.61 1977.5M4299.64 1272.5 4299.64 1977.5M5156.67 1272.5 5156.67 1977.5M6014.7 1272.5 6014.7 1977.5M6872.73 1272.5 6872.73 1977.5M7729.5 1272.5 7729.5 1977.5" stroke="#D9D9D9" stroke-width="3.4375" stroke-linejoin="round" stroke-miterlimit="10" fill="none"/></g><g clip-path="url(#clip3)"><path d="M0 0 0.000360892 705" stroke="#BFBFBF" stroke-width="3.4375" stroke-linejoin="round" stroke-miterlimit="10" fill="none" fill-rule="evenodd" transform="matrix(1 0 0 -1 868.5 1977.5)"/></g><g clip-path="url(#clip4)"><path d="M868.5 1977.5 7729.5 1977.5" stroke="#BFBFBF" stroke-width="3.4375" stroke-linejoin="round" stroke-miterlimit="10" fill="none" fill-rule="evenodd"/></g><g clip-path="url(#clip5)"><path d="M3832.71 1563.38C3832.71 1569.45 3827.78 1574.37 3821.71 1574.37 3815.63 1574.37 3810.71 1569.45 3810.71 1563.38 3810.71 1557.3 3815.63 1552.38 3821.71 1552.38 3827.78 1552.38 3832.71 1557.3 3832.71 1563.38Z" stroke="#4472C4" stroke-width="3.4375" stroke-linejoin="round" stroke-miterlimit="10" fill="#4472C4"/><path d="M4886.71 1561.38C4886.71 1567.45 4881.78 1572.38 4875.71 1572.38 4869.63 1572.38 4864.71 1567.45 4864.71 1561.38 4864.71 1555.3 4869.63 1550.38 4875.71 1550.38 4881.78 1550.38 4886.71 1555.3 4886.71 1561.38Z" stroke="#4472C4" stroke-width="3.4375" stroke-linejoin="round" stroke-miterlimit="10" fill="#4472C4"/><path d="M4180.71 1561.38C4180.71 1567.45 4175.78 1572.38 4169.71 1572.38 4163.63 1572.38 4158.71 1567.45 4158.71 1561.38 4158.71 1555.3 4163.63 1550.38 4169.71 1550.38 4175.78 1550.38 4180.71 1555.3 4180.71 1561.38Z" stroke="#4472C4" stroke-width="3.4375" stroke-linejoin="round" stroke-miterlimit="10" fill="#4472C4"/><path d="M4536.71 1560.38C4536.71 1566.45 4531.78 1571.37 4525.71 1571.37 4519.63 1571.37 4514.71 1566.45 4514.71 1560.38 4514.71 1554.3 4519.63 1549.38 4525.71 1549.38 4531.78 1549.38 4536.71 1554.3 4536.71 1560.38Z" stroke="#4472C4" stroke-width="3.4375" stroke-linejoin="round" stroke-miterlimit="10" fill="#4472C4"/><path d="M4186.71 1560.38C4186.71 1566.45 4181.78 1571.37 4175.71 1571.37 4169.63 1571.37 4164.71 1566.45 4164.71 1560.38 4164.71 1554.3 4169.63 1549.38 4175.71 1549.38 4181.78 1549.38 4186.71 1554.3 4186.71 1560.38Z" stroke="#4472C4" stroke-width="3.4375" stroke-linejoin="round" stroke-miterlimit="10" fill="#4472C4"/><path d="M4881.71 1560.38C4881.71 1566.45 4876.78 1571.37 4870.71 1571.37 4864.63 1571.37 4859.71 1566.45 4859.71 1560.38 4859.71 1554.3 4864.63 1549.38 4870.71 1549.38 4876.78 1549.38 4881.71 1554.3 4881.71 1560.38Z" stroke="#4472C4" stroke-width="3.4375" stroke-linejoin="round" stroke-miterlimit="10" fill="#4472C4"/><path d="M5586.71 1559.38C5586.71 1565.45 5581.78 1570.37 5575.71 1570.37 5569.63 1570.37 5564.71 1565.45 5564.71 1559.38 5564.71 1553.3 5569.63 1548.38 5575.71 1548.38 5581.78 1548.38 5586.71 1553.3 5586.71 1559.38Z" stroke="#4472C4" stroke-width="3.4375" stroke-linejoin="round" stroke-miterlimit="10" fill="#4472C4"/><path d="M4729.71 1559.38C4729.71 1565.45 4724.78 1570.37 4718.71 1570.37 4712.63 1570.37 4707.71 1565.45 4707.71 1559.38 4707.71 1553.3 4712.63 1548.38 4718.71 1548.38 4724.78 1548.38 4729.71 1553.3 4729.71 1559.38Z" stroke="#4472C4" stroke-width="3.4375" stroke-linejoin="round" stroke-miterlimit="10" fill="#4472C4"/><path d="M4882.71 1559.38C4882.71 1565.45 4877.78 1570.37 4871.71 1570.37 4865.63 1570.37 4860.71 1565.45 4860.71 1559.38 4860.71 1553.3 4865.63 1548.38 4871.71 1548.38 4877.78 1548.38 4882.71 1553.3 4882.71 1559.38Z" stroke="#4472C4" stroke-width="3.4375" stroke-linejoin="round" stroke-miterlimit="10" fill="#4472C4"/><path d="M3680.71 1559.38C3680.71 1565.45 3675.78 1570.37 3669.71 1570.37 3663.63 1570.37 3658.71 1565.45 3658.71 1559.38 3658.71 1553.3 3663.63 1548.38 3669.71 1548.38 3675.78 1548.38 3680.71 1553.3 3680.71 1559.38Z" stroke="#4472C4" stroke-width="3.4375" stroke-linejoin="round" stroke-miterlimit="10" fill="#4472C4"/><path d="M5233.71 1559.38C5233.71 1565.45 5228.78 1570.37 5222.71 1570.37 5216.63 1570.37 5211.71 1565.45 5211.71 1559.38 5211.71 1553.3 5216.63 1548.38 5222.71 1548.38 5228.78 1548.38 5233.71 1553.3 5233.71 1559.38Z" stroke="#4472C4" stroke-width="3.4375" stroke-linejoin="round" stroke-miterlimit="10" fill="#4472C4"/><path d="M3681.71 1558.38C3681.71 1564.45 3676.78 1569.37 3670.71 1569.37 3664.63 1569.37 3659.71 1564.45 3659.71 1558.38 3659.71 1552.3 3664.63 1547.38 3670.71 1547.38 3676.78 1547.38 3681.71 1552.3 3681.71 1558.38Z" stroke="#4472C4" stroke-width="3.4375" stroke-linejoin="round" stroke-miterlimit="10" fill="#4472C4"/><path d="M3830.71 1558.38C3830.71 1564.45 3825.78 1569.37 3819.71 1569.37 3813.63 1569.37 3808.71 1564.45 3808.71 1558.38 3808.71 1552.3 3813.63 1547.38 3819.71 1547.38 3825.78 1547.38 3830.71 1552.3 3830.71 1558.38Z" stroke="#4472C4" stroke-width="3.4375" stroke-linejoin="round" stroke-miterlimit="10" fill="#4472C4"/><path d="M5428.71 1558.38C5428.71 1564.45 5423.78 1569.37 5417.71 1569.37 5411.63 1569.37 5406.71 1564.45 5406.71 1558.38 5406.71 1552.3 5411.63 1547.38 5417.71 1547.38 5423.78 1547.38 5428.71 1552.3 5428.71 1558.38Z" stroke="#4472C4" stroke-width="3.4375" stroke-linejoin="round" stroke-miterlimit="10" fill="#4472C4"/><path d="M4731.71 1556.38C4731.71 1562.45 4726.78 1567.37 4720.71 1567.37 4714.63 1567.37 4709.71 1562.45 4709.71 1556.38 4709.71 1550.3 4714.63 1545.38 4720.71 1545.38 4726.78 1545.38 4731.71 1550.3 4731.71 1556.38Z" stroke="#4472C4" stroke-width="3.4375" stroke-linejoin="round" stroke-miterlimit="10" fill="#4472C4"/><path d="M5230.71 1556.38C5230.71 1562.45 5225.78 1567.37 5219.71 1567.37 5213.63 1567.37 5208.71 1562.45 5208.71 1556.38 5208.71 1550.3 5213.63 1545.38 5219.71 1545.38 5225.78 1545.38 5230.71 1550.3 5230.71 1556.38Z" stroke="#4472C4" stroke-width="3.4375" stroke-linejoin="round" stroke-miterlimit="10" fill="#4472C4"/><path d="M6286.71 1554.38C6286.71 1560.45 6281.78 1565.37 6275.71 1565.37 6269.63 1565.37 6264.71 1560.45 6264.71 1554.38 6264.71 1548.3 6269.63 1543.38 6275.71 1543.38 6281.78 1543.38 6286.71 1548.3 6286.71 1554.38Z" stroke="#4472C4" stroke-width="3.4375" stroke-linejoin="round" stroke-miterlimit="10" fill="#4472C4"/><path d="M6131.71 1553.38C6131.71 1559.45 6126.78 1564.37 6120.71 1564.37 6114.63 1564.37 6109.71 1559.45 6109.71 1553.38 6109.71 1547.3 6114.63 1542.38 6120.71 1542.38 6126.78 1542.38 6131.71 1547.3 6131.71 1553.38Z" stroke="#4472C4" stroke-width="3.4375" stroke-linejoin="round" stroke-miterlimit="10" fill="#4472C4"/><path d="M6134.71 1550.38C6134.71 1556.45 6129.78 1561.38 6123.71 1561.38 6117.63 1561.38 6112.71 1556.45 6112.71 1550.38 6112.71 1544.3 6117.63 1539.38 6123.71 1539.38 6129.78 1539.38 6134.71 1544.3 6134.71 1550.38Z" stroke="#4472C4" stroke-width="3.4375" stroke-linejoin="round" stroke-miterlimit="10" fill="#4472C4"/><path d="M6478.71 1363.38C6478.71 1369.45 6473.78 1374.38 6467.71 1374.38 6461.63 1374.38 6456.71 1369.45 6456.71 1363.38 6456.71 1357.3 6461.63 1352.38 6467.71 1352.38 6473.78 1352.38 6478.71 1357.3 6478.71 1363.38Z" stroke="#4472C4" stroke-width="3.4375" stroke-linejoin="round" stroke-miterlimit="10" fill="#4472C4"/><path d="M4533.71 1361.38C4533.71 1367.45 4528.78 1372.37 4522.71 1372.37 4516.63 1372.37 4511.71 1367.45 4511.71 1361.38 4511.71 1355.3 4516.63 1350.38 4522.71 1350.38 4528.78 1350.38 4533.71 1355.3 4533.71 1361.38Z" stroke="#4472C4" stroke-width="3.4375" stroke-linejoin="round" stroke-miterlimit="10" fill="#4472C4"/><path d="M4883.71 1360.38C4883.71 1366.45 4878.78 1371.37 4872.71 1371.37 4866.63 1371.37 4861.71 1366.45 4861.71 1360.38 4861.71 1354.3 4866.63 1349.38 4872.71 1349.38 4878.78 1349.38 4883.71 1354.3 4883.71 1360.38Z" stroke="#4472C4" stroke-width="3.4375" stroke-linejoin="round" stroke-miterlimit="10" fill="#4472C4"/><path d="M2985.71 1360.38C2985.71 1366.45 2980.78 1371.37 2974.71 1371.37 2968.63 1371.37 2963.71 1366.45 2963.71 1360.38 2963.71 1354.3 2968.63 1349.38 2974.71 1349.38 2980.78 1349.38 2985.71 1354.3 2985.71 1360.38Z" stroke="#4472C4" stroke-width="3.4375" stroke-linejoin="round" stroke-miterlimit="10" fill="#4472C4"/><path d="M3680.71 1360.38C3680.71 1366.45 3675.78 1371.37 3669.71 1371.37 3663.63 1371.37 3658.71 1366.45 3658.71 1360.38 3658.71 1354.3 3663.63 1349.38 3669.71 1349.38 3675.78 1349.38 3680.71 1354.3 3680.71 1360.38Z" stroke="#4472C4" stroke-width="3.4375" stroke-linejoin="round" stroke-miterlimit="10" fill="#4472C4"/><path d="M1381.71 1360.38C1381.71 1366.45 1376.78 1371.37 1370.71 1371.37 1364.63 1371.37 1359.71 1366.45 1359.71 1360.38 1359.71 1354.3 1364.63 1349.38 1370.71 1349.38 1376.78 1349.38 1381.71 1354.3 1381.71 1360.38Z" stroke="#4472C4" stroke-width="3.4375" stroke-linejoin="round" stroke-miterlimit="10" fill="#4472C4"/><path d="M4532.71 1359.38C4532.71 1365.45 4527.78 1370.37 4521.71 1370.37 4515.63 1370.37 4510.71 1365.45 4510.71 1359.38 4510.71 1353.3 4515.63 1348.38 4521.71 1348.38 4527.78 1348.38 4532.71 1353.3 4532.71 1359.38Z" stroke="#4472C4" stroke-width="3.4375" stroke-linejoin="round" stroke-miterlimit="10" fill="#4472C4"/><path d="M5078.71 1359.38C5078.71 1365.45 5073.78 1370.37 5067.71 1370.37 5061.63 1370.37 5056.71 1365.45 5056.71 1359.38 5056.71 1353.3 5061.63 1348.38 5067.71 1348.38 5073.78 1348.38 5078.71 1353.3 5078.71 1359.38Z" stroke="#4472C4" stroke-width="3.4375" stroke-linejoin="round" stroke-miterlimit="10" fill="#4472C4"/><path d="M2630.71 1359.38C2630.71 1365.45 2625.78 1370.37 2619.71 1370.37 2613.63 1370.37 2608.71 1365.45 2608.71 1359.38 2608.71 1353.3 2613.63 1348.38 2619.71 1348.38 2625.78 1348.38 2630.71 1353.3 2630.71 1359.38Z" stroke="#4472C4" stroke-width="3.4375" stroke-linejoin="round" stroke-miterlimit="10" fill="#4472C4"/><path d="M2787.71 1359.38C2787.71 1365.45 2782.78 1370.37 2776.71 1370.37 2770.63 1370.37 2765.71 1365.45 2765.71 1359.38 2765.71 1353.3 2770.63 1348.38 2776.71 1348.38 2782.78 1348.38 2787.71 1353.3 2787.71 1359.38Z" stroke="#4472C4" stroke-width="3.4375" stroke-linejoin="round" stroke-miterlimit="10" fill="#4472C4"/><path d="M1382.71 1359.38C1382.71 1365.45 1377.78 1370.37 1371.71 1370.37 1365.63 1370.37 1360.71 1365.45 1360.71 1359.38 1360.71 1353.3 1365.63 1348.38 1371.71 1348.38 1377.78 1348.38 1382.71 1353.3 1382.71 1359.38Z" stroke="#4472C4" stroke-width="3.4375" stroke-linejoin="round" stroke-miterlimit="10" fill="#4472C4"/><path d="M1231.71 1359.38C1231.71 1365.45 1226.78 1370.37 1220.71 1370.37 1214.63 1370.37 1209.71 1365.45 1209.71 1359.38 1209.71 1353.3 1214.63 1348.38 1220.71 1348.38 1226.78 1348.38 1231.71 1353.3 1231.71 1359.38Z" stroke="#4472C4" stroke-width="3.4375" stroke-linejoin="round" stroke-miterlimit="10" fill="#4472C4"/><path d="M2285.71 1359.38C2285.71 1365.45 2280.78 1370.37 2274.71 1370.37 2268.63 1370.37 2263.71 1365.45 2263.71 1359.38 2263.71 1353.3 2268.63 1348.38 2274.71 1348.38 2280.78 1348.38 2285.71 1353.3 2285.71 1359.38Z" stroke="#4472C4" stroke-width="3.4375" stroke-linejoin="round" stroke-miterlimit="10" fill="#4472C4"/><path d="M6481.71 1359.38C6481.71 1365.45 6476.78 1370.37 6470.71 1370.37 6464.63 1370.37 6459.71 1365.45 6459.71 1359.38 6459.71 1353.3 6464.63 1348.38 6470.71 1348.38 6476.78 1348.38 6481.71 1353.3 6481.71 1359.38Z" stroke="#4472C4" stroke-width="3.4375" stroke-linejoin="round" stroke-miterlimit="10" fill="#4472C4"/><path d="M4880.71 1359.38C4880.71 1365.45 4875.78 1370.37 4869.71 1370.37 4863.63 1370.37 4858.71 1365.45 4858.71 1359.38 4858.71 1353.3 4863.63 1348.38 4869.71 1348.38 4875.78 1348.38 4880.71 1353.3 4880.71 1359.38Z" stroke="#4472C4" stroke-width="3.4375" stroke-linejoin="round" stroke-miterlimit="10" fill="#4472C4"/><path d="M6484.71 1359.38C6484.71 1365.45 6479.78 1370.37 6473.71 1370.37 6467.63 1370.37 6462.71 1365.45 6462.71 1359.38 6462.71 1353.3 6467.63 1348.38 6473.71 1348.38 6479.78 1348.38 6484.71 1353.3 6484.71 1359.38Z" stroke="#4472C4" stroke-width="3.4375" stroke-linejoin="round" stroke-miterlimit="10" fill="#4472C4"/><path d="M4029.71 1359.38C4029.71 1365.45 4024.78 1370.37 4018.71 1370.37 4012.63 1370.37 4007.71 1365.45 4007.71 1359.38 4007.71 1353.3 4012.63 1348.38 4018.71 1348.38 4024.78 1348.38 4029.71 1353.3 4029.71 1359.38Z" stroke="#4472C4" stroke-width="3.4375" stroke-linejoin="round" stroke-miterlimit="10" fill="#4472C4"/><path d="M4031.71 1359.38C4031.71 1365.45 4026.78 1370.37 4020.71 1370.37 4014.63 1370.37 4009.71 1365.45 4009.71 1359.38 4009.71 1353.3 4014.63 1348.38 4020.71 1348.38 4026.78 1348.38 4031.71 1353.3 4031.71 1359.38Z" stroke="#4472C4" stroke-width="3.4375" stroke-linejoin="round" stroke-miterlimit="10" fill="#4472C4"/><path d="M880.708 1359.38C880.708 1365.45 875.783 1370.37 869.708 1370.37 863.633 1370.37 858.708 1365.45 858.708 1359.38 858.708 1353.3 863.633 1348.38 869.708 1348.38 875.783 1348.38 880.708 1353.3 880.708 1359.38Z" stroke="#4472C4" stroke-width="3.4375" stroke-linejoin="round" stroke-miterlimit="10" fill="#4472C4"/><path d="M1737.71 1358.38C1737.71 1364.45 1732.78 1369.37 1726.71 1369.37 1720.63 1369.37 1715.71 1364.45 1715.71 1358.38 1715.71 1352.3 1720.63 1347.38 1726.71 1347.38 1732.78 1347.38 1737.71 1352.3 1737.71 1358.38Z" stroke="#4472C4" stroke-width="3.4375" stroke-linejoin="round" stroke-miterlimit="10" fill="#4472C4"/><path d="M5080.71 1358.38C5080.71 1364.45 5075.78 1369.37 5069.71 1369.37 5063.63 1369.37 5058.71 1364.45 5058.71 1358.38 5058.71 1352.3 5063.63 1347.38 5069.71 1347.38 5075.78 1347.38 5080.71 1352.3 5080.71 1358.38Z" stroke="#4472C4" stroke-width="3.4375" stroke-linejoin="round" stroke-miterlimit="10" fill="#4472C4"/><path d="M4030.71 1358.38C4030.71 1364.45 4025.78 1369.37 4019.71 1369.37 4013.63 1369.37 4008.71 1364.45 4008.71 1358.38 4008.71 1352.3 4013.63 1347.38 4019.71 1347.38 4025.78 1347.38 4030.71 1352.3 4030.71 1358.38Z" stroke="#4472C4" stroke-width="3.4375" stroke-linejoin="round" stroke-miterlimit="10" fill="#4472C4"/><path d="M6130.71 1358.38C6130.71 1364.45 6125.78 1369.37 6119.71 1369.37 6113.63 1369.37 6108.71 1364.45 6108.71 1358.38 6108.71 1352.3 6113.63 1347.38 6119.71 1347.38 6125.78 1347.38 6130.71 1352.3 6130.71 1358.38Z" stroke="#4472C4" stroke-width="3.4375" stroke-linejoin="round" stroke-miterlimit="10" fill="#4472C4"/><path d="M6281.71 1358.38C6281.71 1364.45 6276.78 1369.37 6270.71 1369.37 6264.63 1369.37 6259.71 1364.45 6259.71 1358.38 6259.71 1352.3 6264.63 1347.38 6270.71 1347.38 6276.78 1347.38 6281.71 1352.3 6281.71 1358.38Z" stroke="#4472C4" stroke-width="3.4375" stroke-linejoin="round" stroke-miterlimit="10" fill="#4472C4"/><path d="M6479.71 1358.38C6479.71 1364.45 6474.78 1369.37 6468.71 1369.37 6462.63 1369.37 6457.71 1364.45 6457.71 1358.38 6457.71 1352.3 6462.63 1347.38 6468.71 1347.38 6474.78 1347.38 6479.71 1352.3 6479.71 1358.38Z" stroke="#4472C4" stroke-width="3.4375" stroke-linejoin="round" stroke-miterlimit="10" fill="#4472C4"/><path d="M6129.71 1358.38C6129.71 1364.45 6124.78 1369.37 6118.71 1369.37 6112.63 1369.37 6107.71 1364.45 6107.71 1358.38 6107.71 1352.3 6112.63 1347.38 6118.71 1347.38 6124.78 1347.38 6129.71 1352.3 6129.71 1358.38Z" stroke="#4472C4" stroke-width="3.4375" stroke-linejoin="round" stroke-miterlimit="10" fill="#4472C4"/><path d="M6480.71 1358.38C6480.71 1364.45 6475.78 1369.37 6469.71 1369.37 6463.63 1369.37 6458.71 1364.45 6458.71 1358.38 6458.71 1352.3 6463.63 1347.38 6469.71 1347.38 6475.78 1347.38 6480.71 1352.3 6480.71 1358.38Z" stroke="#4472C4" stroke-width="3.4375" stroke-linejoin="round" stroke-miterlimit="10" fill="#4472C4"/><path d="M3133.71 1358.38C3133.71 1364.45 3128.78 1369.37 3122.71 1369.37 3116.63 1369.37 3111.71 1364.45 3111.71 1358.38 3111.71 1352.3 3116.63 1347.38 3122.71 1347.38 3128.78 1347.38 3133.71 1352.3 3133.71 1358.38Z" stroke="#4472C4" stroke-width="3.4375" stroke-linejoin="round" stroke-miterlimit="10" fill="#4472C4"/><path d="M1929.71 1358.38C1929.71 1364.45 1924.78 1369.37 1918.71 1369.37 1912.63 1369.37 1907.71 1364.45 1907.71 1358.38 1907.71 1352.3 1912.63 1347.38 1918.71 1347.38 1924.78 1347.38 1929.71 1352.3 1929.71 1358.38Z" stroke="#4472C4" stroke-width="3.4375" stroke-linejoin="round" stroke-miterlimit="10" fill="#4472C4"/><path d="M6282.71 1358.38C6282.71 1364.45 6277.78 1369.37 6271.71 1369.37 6265.63 1369.37 6260.71 1364.45 6260.71 1358.38 6260.71 1352.3 6265.63 1347.38 6271.71 1347.38 6277.78 1347.38 6282.71 1352.3 6282.71 1358.38Z" stroke="#4472C4" stroke-width="3.4375" stroke-linejoin="round" stroke-miterlimit="10" fill="#4472C4"/><path d="M3681.71 1358.38C3681.71 1364.45 3676.78 1369.37 3670.71 1369.37 3664.63 1369.37 3659.71 1364.45 3659.71 1358.38 3659.71 1352.3 3664.63 1347.38 3670.71 1347.38 3676.78 1347.38 3681.71 1352.3 3681.71 1358.38Z" stroke="#4472C4" stroke-width="3.4375" stroke-linejoin="round" stroke-miterlimit="10" fill="#4472C4"/><path d="M4378.71 1358.38C4378.71 1364.45 4373.78 1369.37 4367.71 1369.37 4361.63 1369.37 4356.71 1364.45 4356.71 1358.38 4356.71 1352.3 4361.63 1347.38 4367.71 1347.38 4373.78 1347.38 4378.71 1352.3 4378.71 1358.38Z" stroke="#4472C4" stroke-width="3.4375" stroke-linejoin="round" stroke-miterlimit="10" fill="#4472C4"/><path d="M6129.71 1358.38C6129.71 1364.45 6124.78 1369.37 6118.71 1369.37 6112.63 1369.37 6107.71 1364.45 6107.71 1358.38 6107.71 1352.3 6112.63 1347.38 6118.71 1347.38 6124.78 1347.38 6129.71 1352.3 6129.71 1358.38Z" stroke="#4472C4" stroke-width="3.4375" stroke-linejoin="round" stroke-miterlimit="10" fill="#4472C4"/><path d="M5784.71 1358.38C5784.71 1364.45 5779.78 1369.37 5773.71 1369.37 5767.63 1369.37 5762.71 1364.45 5762.71 1358.38 5762.71 1352.3 5767.63 1347.38 5773.71 1347.38 5779.78 1347.38 5784.71 1352.3 5784.71 1358.38Z" stroke="#4472C4" stroke-width="3.4375" stroke-linejoin="round" stroke-miterlimit="10" fill="#4472C4"/><path d="M3131.71 1358.38C3131.71 1364.45 3126.78 1369.37 3120.71 1369.37 3114.63 1369.37 3109.71 1364.45 3109.71 1358.38 3109.71 1352.3 3114.63 1347.38 3120.71 1347.38 3126.78 1347.38 3131.71 1352.3 3131.71 1358.38Z" stroke="#4472C4" stroke-width="3.4375" stroke-linejoin="round" stroke-miterlimit="10" fill="#4472C4"/><path d="M6281.71 1358.38C6281.71 1364.45 6276.78 1369.37 6270.71 1369.37 6264.63 1369.37 6259.71 1364.45 6259.71 1358.38 6259.71 1352.3 6264.63 1347.38 6270.71 1347.38 6276.78 1347.38 6281.71 1352.3 6281.71 1358.38Z" stroke="#4472C4" stroke-width="3.4375" stroke-linejoin="round" stroke-miterlimit="10" fill="#4472C4"/><path d="M1930.71 1358.38C1930.71 1364.45 1925.78 1369.37 1919.71 1369.37 1913.63 1369.37 1908.71 1364.45 1908.71 1358.38 1908.71 1352.3 1913.63 1347.38 1919.71 1347.38 1925.78 1347.38 1930.71 1352.3 1930.71 1358.38Z" stroke="#4472C4" stroke-width="3.4375" stroke-linejoin="round" stroke-miterlimit="10" fill="#4472C4"/><path d="M5936.71 1358.38C5936.71 1364.45 5931.78 1369.37 5925.71 1369.37 5919.63 1369.37 5914.71 1364.45 5914.71 1358.38 5914.71 1352.3 5919.63 1347.38 5925.71 1347.38 5931.78 1347.38 5936.71 1352.3 5936.71 1358.38Z" stroke="#4472C4" stroke-width="3.4375" stroke-linejoin="round" stroke-miterlimit="10" fill="#4472C4"/><path d="M5231.71 1358.38C5231.71 1364.45 5226.78 1369.37 5220.71 1369.37 5214.63 1369.37 5209.71 1364.45 5209.71 1358.38 5209.71 1352.3 5214.63 1347.38 5220.71 1347.38 5226.78 1347.38 5231.71 1352.3 5231.71 1358.38Z" stroke="#4472C4" stroke-width="3.4375" stroke-linejoin="round" stroke-miterlimit="10" fill="#4472C4"/><path d="M3482.71 1358.38C3482.71 1364.45 3477.78 1369.37 3471.71 1369.37 3465.63 1369.37 3460.71 1364.45 3460.71 1358.38 3460.71 1352.3 3465.63 1347.38 3471.71 1347.38 3477.78 1347.38 3482.71 1352.3 3482.71 1358.38Z" stroke="#4472C4" stroke-width="3.4375" stroke-linejoin="round" stroke-miterlimit="10" fill="#4472C4"/><path d="M5236.71 1358.38C5236.71 1364.45 5231.78 1369.37 5225.71 1369.37 5219.63 1369.37 5214.71 1364.45 5214.71 1358.38 5214.71 1352.3 5219.63 1347.38 5225.71 1347.38 5231.78 1347.38 5236.71 1352.3 5236.71 1358.38Z" stroke="#4472C4" stroke-width="3.4375" stroke-linejoin="round" stroke-miterlimit="10" fill="#4472C4"/><path d="M885.707 1358.38C885.707 1364.45 880.783 1369.37 874.708 1369.37 868.633 1369.37 863.708 1364.45 863.708 1358.38 863.708 1352.3 868.633 1347.38 874.708 1347.38 880.783 1347.38 885.707 1352.3 885.707 1358.38Z" stroke="#4472C4" stroke-width="3.4375" stroke-linejoin="round" stroke-miterlimit="10" fill="#4472C4"/><path d="M1580.71 1358.38C1580.71 1364.45 1575.78 1369.37 1569.71 1369.37 1563.63 1369.37 1558.71 1364.45 1558.71 1358.38 1558.71 1352.3 1563.63 1347.38 1569.71 1347.38 1575.78 1347.38 1580.71 1352.3 1580.71 1358.38Z" stroke="#4472C4" stroke-width="3.4375" stroke-linejoin="round" stroke-miterlimit="10" fill="#4472C4"/><path d="M5084.71 1358.38C5084.71 1364.45 5079.78 1369.37 5073.71 1369.37 5067.63 1369.37 5062.71 1364.45 5062.71 1358.38 5062.71 1352.3 5067.63 1347.38 5073.71 1347.38 5079.78 1347.38 5084.71 1352.3 5084.71 1358.38Z" stroke="#4472C4" stroke-width="3.4375" stroke-linejoin="round" stroke-miterlimit="10" fill="#4472C4"/><path d="M3483.71 1358.38C3483.71 1364.45 3478.78 1369.37 3472.71 1369.37 3466.63 1369.37 3461.71 1364.45 3461.71 1358.38 3461.71 1352.3 3466.63 1347.38 3472.71 1347.38 3478.78 1347.38 3483.71 1352.3 3483.71 1358.38Z" stroke="#4472C4" stroke-width="3.4375" stroke-linejoin="round" stroke-miterlimit="10" fill="#4472C4"/><path d="M6630.71 1357.38C6630.71 1363.45 6625.78 1368.37 6619.71 1368.37 6613.63 1368.37 6608.71 1363.45 6608.71 1357.38 6608.71 1351.3 6613.63 1346.38 6619.71 1346.38 6625.78 1346.38 6630.71 1351.3 6630.71 1357.38Z" stroke="#4472C4" stroke-width="3.4375" stroke-linejoin="round" stroke-miterlimit="10" fill="#4472C4"/><path d="M1384.71 1357.38C1384.71 1363.45 1379.78 1368.37 1373.71 1368.37 1367.63 1368.37 1362.71 1363.45 1362.71 1357.38 1362.71 1351.3 1367.63 1346.38 1373.71 1346.38 1379.78 1346.38 1384.71 1351.3 1384.71 1357.38Z" stroke="#4472C4" stroke-width="3.4375" stroke-linejoin="round" stroke-miterlimit="10" fill="#4472C4"/><path d="M1935.71 1357.38C1935.71 1363.45 1930.78 1368.37 1924.71 1368.37 1918.63 1368.37 1913.71 1363.45 1913.71 1357.38 1913.71 1351.3 1918.63 1346.38 1924.71 1346.38 1930.78 1346.38 1935.71 1351.3 1935.71 1357.38Z" stroke="#4472C4" stroke-width="3.4375" stroke-linejoin="round" stroke-miterlimit="10" fill="#4472C4"/><path d="M5930.71 1357.38C5930.71 1363.45 5925.78 1368.37 5919.71 1368.37 5913.63 1368.37 5908.71 1363.45 5908.71 1357.38 5908.71 1351.3 5913.63 1346.38 5919.71 1346.38 5925.78 1346.38 5930.71 1351.3 5930.71 1357.38Z" stroke="#4472C4" stroke-width="3.4375" stroke-linejoin="round" stroke-miterlimit="10" fill="#4472C4"/><path d="M5583.71 1357.38C5583.71 1363.45 5578.78 1368.37 5572.71 1368.37 5566.63 1368.37 5561.71 1363.45 5561.71 1357.38 5561.71 1351.3 5566.63 1346.38 5572.71 1346.38 5578.78 1346.38 5583.71 1351.3 5583.71 1357.38Z" stroke="#4472C4" stroke-width="3.4375" stroke-linejoin="round" stroke-miterlimit="10" fill="#4472C4"/><path d="M6479.71 1357.38C6479.71 1363.45 6474.78 1368.37 6468.71 1368.37 6462.63 1368.37 6457.71 1363.45 6457.71 1357.38 6457.71 1351.3 6462.63 1346.38 6468.71 1346.38 6474.78 1346.38 6479.71 1351.3 6479.71 1357.38Z" stroke="#4472C4" stroke-width="3.4375" stroke-linejoin="round" stroke-miterlimit="10" fill="#4472C4"/><path d="M2783.71 1357.38C2783.71 1363.45 2778.78 1368.37 2772.71 1368.37 2766.63 1368.37 2761.71 1363.45 2761.71 1357.38 2761.71 1351.3 2766.63 1346.38 2772.71 1346.38 2778.78 1346.38 2783.71 1351.3 2783.71 1357.38Z" stroke="#4472C4" stroke-width="3.4375" stroke-linejoin="round" stroke-miterlimit="10" fill="#4472C4"/><path d="M2782.71 1357.38C2782.71 1363.45 2777.78 1368.37 2771.71 1368.37 2765.63 1368.37 2760.71 1363.45 2760.71 1357.38 2760.71 1351.3 2765.63 1346.38 2771.71 1346.38 2777.78 1346.38 2782.71 1351.3 2782.71 1357.38Z" stroke="#4472C4" stroke-width="3.4375" stroke-linejoin="round" stroke-miterlimit="10" fill="#4472C4"/><path d="M5778.71 1357.38C5778.71 1363.45 5773.78 1368.37 5767.71 1368.37 5761.63 1368.37 5756.71 1363.45 5756.71 1357.38 5756.71 1351.3 5761.63 1346.38 5767.71 1346.38 5773.78 1346.38 5778.71 1351.3 5778.71 1357.38Z" stroke="#4472C4" stroke-width="3.4375" stroke-linejoin="round" stroke-miterlimit="10" fill="#4472C4"/><path d="M5581.71 1357.38C5581.71 1363.45 5576.78 1368.37 5570.71 1368.37 5564.63 1368.37 5559.71 1363.45 5559.71 1357.38 5559.71 1351.3 5564.63 1346.38 5570.71 1346.38 5576.78 1346.38 5581.71 1351.3 5581.71 1357.38Z" stroke="#4472C4" stroke-width="3.4375" stroke-linejoin="round" stroke-miterlimit="10" fill="#4472C4"/><path d="M2087.71 1357.38C2087.71 1363.45 2082.78 1368.37 2076.71 1368.37 2070.63 1368.37 2065.71 1363.45 2065.71 1357.38 2065.71 1351.3 2070.63 1346.38 2076.71 1346.38 2082.78 1346.38 2087.71 1351.3 2087.71 1357.38Z" stroke="#4472C4" stroke-width="3.4375" stroke-linejoin="round" stroke-miterlimit="10" fill="#4472C4"/><path d="M2280.71 1357.38C2280.71 1363.45 2275.78 1368.37 2269.71 1368.37 2263.63 1368.37 2258.71 1363.45 2258.71 1357.38 2258.71 1351.3 2263.63 1346.38 2269.71 1346.38 2275.78 1346.38 2280.71 1351.3 2280.71 1357.38Z" stroke="#4472C4" stroke-width="3.4375" stroke-linejoin="round" stroke-miterlimit="10" fill="#4472C4"/><path d="M3329.71 1357.38C3329.71 1363.45 3324.78 1368.37 3318.71 1368.37 3312.63 1368.37 3307.71 1363.45 3307.71 1357.38 3307.71 1351.3 3312.63 1346.38 3318.71 1346.38 3324.78 1346.38 3329.71 1351.3 3329.71 1357.38Z" stroke="#4472C4" stroke-width="3.4375" stroke-linejoin="round" stroke-miterlimit="10" fill="#4472C4"/><path d="M882.707 1357.38C882.707 1363.45 877.783 1368.37 871.708 1368.37 865.633 1368.37 860.708 1363.45 860.708 1357.38 860.708 1351.3 865.633 1346.38 871.708 1346.38 877.783 1346.38 882.707 1351.3 882.707 1357.38Z" stroke="#4472C4" stroke-width="3.4375" stroke-linejoin="round" stroke-miterlimit="10" fill="#4472C4"/><path d="M1031.71 1357.38C1031.71 1363.45 1026.78 1368.37 1020.71 1368.37 1014.63 1368.37 1009.71 1363.45 1009.71 1357.38 1009.71 1351.3 1014.63 1346.38 1020.71 1346.38 1026.78 1346.38 1031.71 1351.3 1031.71 1357.38Z" stroke="#4472C4" stroke-width="3.4375" stroke-linejoin="round" stroke-miterlimit="10" fill="#4472C4"/><path d="M2282.71 1357.38C2282.71 1363.45 2277.78 1368.37 2271.71 1368.37 2265.63 1368.37 2260.71 1363.45 2260.71 1357.38 2260.71 1351.3 2265.63 1346.38 2271.71 1346.38 2277.78 1346.38 2282.71 1351.3 2282.71 1357.38Z" stroke="#4472C4" stroke-width="3.4375" stroke-linejoin="round" stroke-miterlimit="10" fill="#4472C4"/><path d="M3836.71 1357.38C3836.71 1363.45 3831.78 1368.37 3825.71 1368.37 3819.63 1368.37 3814.71 1363.45 3814.71 1357.38 3814.71 1351.3 3819.63 1346.38 3825.71 1346.38 3831.78 1346.38 3836.71 1351.3 3836.71 1357.38Z" stroke="#4472C4" stroke-width="3.4375" stroke-linejoin="round" stroke-miterlimit="10" fill="#4472C4"/><path d="M6128.71 1357.38C6128.71 1363.45 6123.78 1368.37 6117.71 1368.37 6111.63 1368.37 6106.71 1363.45 6106.71 1357.38 6106.71 1351.3 6111.63 1346.38 6117.71 1346.38 6123.78 1346.38 6128.71 1351.3 6128.71 1357.38Z" stroke="#4472C4" stroke-width="3.4375" stroke-linejoin="round" stroke-miterlimit="10" fill="#4472C4"/><path d="M2981.71 1357.38C2981.71 1363.45 2976.78 1368.37 2970.71 1368.37 2964.63 1368.37 2959.71 1363.45 2959.71 1357.38 2959.71 1351.3 2964.63 1346.38 2970.71 1346.38 2976.78 1346.38 2981.71 1351.3 2981.71 1357.38Z" stroke="#4472C4" stroke-width="3.4375" stroke-linejoin="round" stroke-miterlimit="10" fill="#4472C4"/><path d="M4182.71 1357.38C4182.71 1363.45 4177.78 1368.37 4171.71 1368.37 4165.63 1368.37 4160.71 1363.45 4160.71 1357.38 4160.71 1351.3 4165.63 1346.38 4171.71 1346.38 4177.78 1346.38 4182.71 1351.3 4182.71 1357.38Z" stroke="#4472C4" stroke-width="3.4375" stroke-linejoin="round" stroke-miterlimit="10" fill="#4472C4"/><path d="M6280.71 1357.38C6280.71 1363.45 6275.78 1368.37 6269.71 1368.37 6263.63 1368.37 6258.71 1363.45 6258.71 1357.38 6258.71 1351.3 6263.63 1346.38 6269.71 1346.38 6275.78 1346.38 6280.71 1351.3 6280.71 1357.38Z" stroke="#4472C4" stroke-width="3.4375" stroke-linejoin="round" stroke-miterlimit="10" fill="#4472C4"/><path d="M1932.71 1356.38C1932.71 1362.45 1927.78 1367.37 1921.71 1367.37 1915.63 1367.37 1910.71 1362.45 1910.71 1356.38 1910.71 1350.3 1915.63 1345.38 1921.71 1345.38 1927.78 1345.38 1932.71 1350.3 1932.71 1356.38Z" stroke="#4472C4" stroke-width="3.4375" stroke-linejoin="round" stroke-miterlimit="10" fill="#4472C4"/><path d="M2635.71 1356.38C2635.71 1362.45 2630.78 1367.37 2624.71 1367.37 2618.63 1367.37 2613.71 1362.45 2613.71 1356.38 2613.71 1350.3 2618.63 1345.38 2624.71 1345.38 2630.78 1345.38 2635.71 1350.3 2635.71 1356.38Z" stroke="#4472C4" stroke-width="3.4375" stroke-linejoin="round" stroke-miterlimit="10" fill="#4472C4"/><path d="M2980.71 1356.38C2980.71 1362.45 2975.78 1367.37 2969.71 1367.37 2963.63 1367.37 2958.71 1362.45 2958.71 1356.38 2958.71 1350.3 2963.63 1345.38 2969.71 1345.38 2975.78 1345.38 2980.71 1350.3 2980.71 1356.38Z" stroke="#4472C4" stroke-width="3.4375" stroke-linejoin="round" stroke-miterlimit="10" fill="#4472C4"/><path d="M4730.71 1356.38C4730.71 1362.45 4725.78 1367.37 4719.71 1367.37 4713.63 1367.37 4708.71 1362.45 4708.71 1356.38 4708.71 1350.3 4713.63 1345.38 4719.71 1345.38 4725.78 1345.38 4730.71 1350.3 4730.71 1356.38Z" stroke="#4472C4" stroke-width="3.4375" stroke-linejoin="round" stroke-miterlimit="10" fill="#4472C4"/><path d="M4035.71 1356.38C4035.71 1362.45 4030.78 1367.37 4024.71 1367.37 4018.63 1367.37 4013.71 1362.45 4013.71 1356.38 4013.71 1350.3 4018.63 1345.38 4024.71 1345.38 4030.78 1345.38 4035.71 1350.3 4035.71 1356.38Z" stroke="#4472C4" stroke-width="3.4375" stroke-linejoin="round" stroke-miterlimit="10" fill="#4472C4"/><path d="M2781.71 1356.38C2781.71 1362.45 2776.78 1367.37 2770.71 1367.37 2764.63 1367.37 2759.71 1362.45 2759.71 1356.38 2759.71 1350.3 2764.63 1345.38 2770.71 1345.38 2776.78 1345.38 2781.71 1350.3 2781.71 1356.38Z" stroke="#4472C4" stroke-width="3.4375" stroke-linejoin="round" stroke-miterlimit="10" fill="#4472C4"/><path d="M5081.71 1356.38C5081.71 1362.45 5076.78 1367.37 5070.71 1367.37 5064.63 1367.37 5059.71 1362.45 5059.71 1356.38 5059.71 1350.3 5064.63 1345.38 5070.71 1345.38 5076.78 1345.38 5081.71 1350.3 5081.71 1356.38Z" stroke="#4472C4" stroke-width="3.4375" stroke-linejoin="round" stroke-miterlimit="10" fill="#4472C4"/><path d="M4380.71 1356.38C4380.71 1362.45 4375.78 1367.37 4369.71 1367.37 4363.63 1367.37 4358.71 1362.45 4358.71 1356.38 4358.71 1350.3 4363.63 1345.38 4369.71 1345.38 4375.78 1345.38 4380.71 1350.3 4380.71 1356.38Z" stroke="#4472C4" stroke-width="3.4375" stroke-linejoin="round" stroke-miterlimit="10" fill="#4472C4"/><path d="M2431.71 1356.38C2431.71 1362.45 2426.78 1367.37 2420.71 1367.37 2414.63 1367.37 2409.71 1362.45 2409.71 1356.38 2409.71 1350.3 2414.63 1345.38 2420.71 1345.38 2426.78 1345.38 2431.71 1350.3 2431.71 1356.38Z" stroke="#4472C4" stroke-width="3.4375" stroke-linejoin="round" stroke-miterlimit="10" fill="#4472C4"/><path d="M3487.71 1356.38C3487.71 1362.45 3482.78 1367.37 3476.71 1367.37 3470.63 1367.37 3465.71 1362.45 3465.71 1356.38 3465.71 1350.3 3470.63 1345.38 3476.71 1345.38 3482.78 1345.38 3487.71 1350.3 3487.71 1356.38Z" stroke="#4472C4" stroke-width="3.4375" stroke-linejoin="round" stroke-miterlimit="10" fill="#4472C4"/><path d="M1579.71 1356.38C1579.71 1362.45 1574.78 1367.37 1568.71 1367.37 1562.63 1367.37 1557.71 1362.45 1557.71 1356.38 1557.71 1350.3 1562.63 1345.38 1568.71 1345.38 1574.78 1345.38 1579.71 1350.3 1579.71 1356.38Z" stroke="#4472C4" stroke-width="3.4375" stroke-linejoin="round" stroke-miterlimit="10" fill="#4472C4"/><path d="M1731.71 1356.38C1731.71 1362.45 1726.78 1367.37 1720.71 1367.37 1714.63 1367.37 1709.71 1362.45 1709.71 1356.38 1709.71 1350.3 1714.63 1345.38 1720.71 1345.38 1726.78 1345.38 1731.71 1350.3 1731.71 1356.38Z" stroke="#4472C4" stroke-width="3.4375" stroke-linejoin="round" stroke-miterlimit="10" fill="#4472C4"/><path d="M3335.71 1356.38C3335.71 1362.45 3330.78 1367.37 3324.71 1367.37 3318.63 1367.37 3313.71 1362.45 3313.71 1356.38 3313.71 1350.3 3318.63 1345.38 3324.71 1345.38 3330.78 1345.38 3335.71 1350.3 3335.71 1356.38Z" stroke="#4472C4" stroke-width="3.4375" stroke-linejoin="round" stroke-miterlimit="10" fill="#4472C4"/><path d="M2279.71 1356.38C2279.71 1362.45 2274.78 1367.37 2268.71 1367.37 2262.63 1367.37 2257.71 1362.45 2257.71 1356.38 2257.71 1350.3 2262.63 1345.38 2268.71 1345.38 2274.78 1345.38 2279.71 1350.3 2279.71 1356.38Z" stroke="#4472C4" stroke-width="3.4375" stroke-linejoin="round" stroke-miterlimit="10" fill="#4472C4"/><path d="M4183.71 1356.38C4183.71 1362.45 4178.78 1367.37 4172.71 1367.37 4166.63 1367.37 4161.71 1362.45 4161.71 1356.38 4161.71 1350.3 4166.63 1345.38 4172.71 1345.38 4178.78 1345.38 4183.71 1350.3 4183.71 1356.38Z" stroke="#4472C4" stroke-width="3.4375" stroke-linejoin="round" stroke-miterlimit="10" fill="#4472C4"/><path d="M3679.71 1356.38C3679.71 1362.45 3674.78 1367.37 3668.71 1367.37 3662.63 1367.37 3657.71 1362.45 3657.71 1356.38 3657.71 1350.3 3662.63 1345.38 3668.71 1345.38 3674.78 1345.38 3679.71 1350.3 3679.71 1356.38Z" stroke="#4472C4" stroke-width="3.4375" stroke-linejoin="round" stroke-miterlimit="10" fill="#4472C4"/><path d="M4728.71 1356.38C4728.71 1362.45 4723.78 1367.37 4717.71 1367.37 4711.63 1367.37 4706.71 1362.45 4706.71 1356.38 4706.71 1350.3 4711.63 1345.38 4717.71 1345.38 4723.78 1345.38 4728.71 1350.3 4728.71 1356.38Z" stroke="#4472C4" stroke-width="3.4375" stroke-linejoin="round" stroke-miterlimit="10" fill="#4472C4"/><path d="M2437.71 1355.38C2437.71 1361.45 2432.78 1366.37 2426.71 1366.37 2420.63 1366.37 2415.71 1361.45 2415.71 1355.38 2415.71 1349.3 2420.63 1344.38 2426.71 1344.38 2432.78 1344.38 2437.71 1349.3 2437.71 1355.38Z" stroke="#4472C4" stroke-width="3.4375" stroke-linejoin="round" stroke-miterlimit="10" fill="#4472C4"/><path d="M1229.71 1355.38C1229.71 1361.45 1224.78 1366.37 1218.71 1366.37 1212.63 1366.37 1207.71 1361.45 1207.71 1355.38 1207.71 1349.3 1212.63 1344.38 1218.71 1344.38 1224.78 1344.38 1229.71 1349.3 1229.71 1355.38Z" stroke="#4472C4" stroke-width="3.4375" stroke-linejoin="round" stroke-miterlimit="10" fill="#4472C4"/><path d="M5781.71 1355.38C5781.71 1361.45 5776.78 1366.37 5770.71 1366.37 5764.63 1366.37 5759.71 1361.45 5759.71 1355.38 5759.71 1349.3 5764.63 1344.38 5770.71 1344.38 5776.78 1344.38 5781.71 1349.3 5781.71 1355.38Z" stroke="#4472C4" stroke-width="3.4375" stroke-linejoin="round" stroke-miterlimit="10" fill="#4472C4"/><path d="M4384.71 1355.38C4384.71 1361.45 4379.78 1366.37 4373.71 1366.37 4367.63 1366.37 4362.71 1361.45 4362.71 1355.38 4362.71 1349.3 4367.63 1344.38 4373.71 1344.38 4379.78 1344.38 4384.71 1349.3 4384.71 1355.38Z" stroke="#4472C4" stroke-width="3.4375" stroke-linejoin="round" stroke-miterlimit="10" fill="#4472C4"/><path d="M2432.71 1355.38C2432.71 1361.45 2427.78 1366.37 2421.71 1366.37 2415.63 1366.37 2410.71 1361.45 2410.71 1355.38 2410.71 1349.3 2415.63 1344.38 2421.71 1344.38 2427.78 1344.38 2432.71 1349.3 2432.71 1355.38Z" stroke="#4472C4" stroke-width="3.4375" stroke-linejoin="round" stroke-miterlimit="10" fill="#4472C4"/><path d="M5431.71 1355.38C5431.71 1361.45 5426.78 1366.37 5420.71 1366.37 5414.63 1366.37 5409.71 1361.45 5409.71 1355.38 5409.71 1349.3 5414.63 1344.38 5420.71 1344.38 5426.78 1344.38 5431.71 1349.3 5431.71 1355.38Z" stroke="#4472C4" stroke-width="3.4375" stroke-linejoin="round" stroke-miterlimit="10" fill="#4472C4"/><path d="M2631.71 1355.38C2631.71 1361.45 2626.78 1366.37 2620.71 1366.37 2614.63 1366.37 2609.71 1361.45 2609.71 1355.38 2609.71 1349.3 2614.63 1344.38 2620.71 1344.38 2626.78 1344.38 2631.71 1349.3 2631.71 1355.38Z" stroke="#4472C4" stroke-width="3.4375" stroke-linejoin="round" stroke-miterlimit="10" fill="#4472C4"/><path d="M5434.71 1355.38C5434.71 1361.45 5429.78 1366.37 5423.71 1366.37 5417.63 1366.37 5412.71 1361.45 5412.71 1355.38 5412.71 1349.3 5417.63 1344.38 5423.71 1344.38 5429.78 1344.38 5434.71 1349.3 5434.71 1355.38Z" stroke="#4472C4" stroke-width="3.4375" stroke-linejoin="round" stroke-miterlimit="10" fill="#4472C4"/><path d="M3481.71 1355.38C3481.71 1361.45 3476.78 1366.37 3470.71 1366.37 3464.63 1366.37 3459.71 1361.45 3459.71 1355.38 3459.71 1349.3 3464.63 1344.38 3470.71 1344.38 3476.78 1344.38 3481.71 1349.3 3481.71 1355.38Z" stroke="#4472C4" stroke-width="3.4375" stroke-linejoin="round" stroke-miterlimit="10" fill="#4472C4"/><path d="M2083.71 1355.38C2083.71 1361.45 2078.78 1366.37 2072.71 1366.37 2066.63 1366.37 2061.71 1361.45 2061.71 1355.38 2061.71 1349.3 2066.63 1344.38 2072.71 1344.38 2078.78 1344.38 2083.71 1349.3 2083.71 1355.38Z" stroke="#4472C4" stroke-width="3.4375" stroke-linejoin="round" stroke-miterlimit="10" fill="#4472C4"/><path d="M1582.71 1355.38C1582.71 1361.45 1577.78 1366.37 1571.71 1366.37 1565.63 1366.37 1560.71 1361.45 1560.71 1355.38 1560.71 1349.3 1565.63 1344.38 1571.71 1344.38 1577.78 1344.38 1582.71 1349.3 1582.71 1355.38Z" stroke="#4472C4" stroke-width="3.4375" stroke-linejoin="round" stroke-miterlimit="10" fill="#4472C4"/><path d="M1034.71 1355.38C1034.71 1361.45 1029.78 1366.37 1023.71 1366.37 1017.63 1366.37 1012.71 1361.45 1012.71 1355.38 1012.71 1349.3 1017.63 1344.38 1023.71 1344.38 1029.78 1344.38 1034.71 1349.3 1034.71 1355.38Z" stroke="#4472C4" stroke-width="3.4375" stroke-linejoin="round" stroke-miterlimit="10" fill="#4472C4"/><path d="M2979.71 1355.38C2979.71 1361.45 2974.78 1366.37 2968.71 1366.37 2962.63 1366.37 2957.71 1361.45 2957.71 1355.38 2957.71 1349.3 2962.63 1344.38 2968.71 1344.38 2974.78 1344.38 2979.71 1349.3 2979.71 1355.38Z" stroke="#4472C4" stroke-width="3.4375" stroke-linejoin="round" stroke-miterlimit="10" fill="#4472C4"/><path d="M3685.71 1355.38C3685.71 1361.45 3680.78 1366.37 3674.71 1366.37 3668.63 1366.37 3663.71 1361.45 3663.71 1355.38 3663.71 1349.3 3668.63 1344.38 3674.71 1344.38 3680.78 1344.38 3685.71 1349.3 3685.71 1355.38Z" stroke="#4472C4" stroke-width="3.4375" stroke-linejoin="round" stroke-miterlimit="10" fill="#4472C4"/><path d="M2082.71 1355.38C2082.71 1361.45 2077.78 1366.37 2071.71 1366.37 2065.63 1366.37 2060.71 1361.45 2060.71 1355.38 2060.71 1349.3 2065.63 1344.38 2071.71 1344.38 2077.78 1344.38 2082.71 1349.3 2082.71 1355.38Z" stroke="#4472C4" stroke-width="3.4375" stroke-linejoin="round" stroke-miterlimit="10" fill="#4472C4"/><path d="M3331.71 1355.38C3331.71 1361.45 3326.78 1366.37 3320.71 1366.37 3314.63 1366.37 3309.71 1361.45 3309.71 1355.38 3309.71 1349.3 3314.63 1344.38 3320.71 1344.38 3326.78 1344.38 3331.71 1349.3 3331.71 1355.38Z" stroke="#4472C4" stroke-width="3.4375" stroke-linejoin="round" stroke-miterlimit="10" fill="#4472C4"/><path d="M5931.71 1355.38C5931.71 1361.45 5926.78 1366.37 5920.71 1366.37 5914.63 1366.37 5909.71 1361.45 5909.71 1355.38 5909.71 1349.3 5914.63 1344.38 5920.71 1344.38 5926.78 1344.38 5931.71 1349.3 5931.71 1355.38Z" stroke="#4472C4" stroke-width="3.4375" stroke-linejoin="round" stroke-miterlimit="10" fill="#4472C4"/><path d="M6282.71 1355.38C6282.71 1361.45 6277.78 1366.37 6271.71 1366.37 6265.63 1366.37 6260.71 1361.45 6260.71 1355.38 6260.71 1349.3 6265.63 1344.38 6271.71 1344.38 6277.78 1344.38 6282.71 1349.3 6282.71 1355.38Z" stroke="#4472C4" stroke-width="3.4375" stroke-linejoin="round" stroke-miterlimit="10" fill="#4472C4"/><path d="M5231.71 1355.38C5231.71 1361.45 5226.78 1366.37 5220.71 1366.37 5214.63 1366.37 5209.71 1361.45 5209.71 1355.38 5209.71 1349.3 5214.63 1344.38 5220.71 1344.38 5226.78 1344.38 5231.71 1349.3 5231.71 1355.38Z" stroke="#4472C4" stroke-width="3.4375" stroke-linejoin="round" stroke-miterlimit="10" fill="#4472C4"/><path d="M2083.71 1355.38C2083.71 1361.45 2078.78 1366.37 2072.71 1366.37 2066.63 1366.37 2061.71 1361.45 2061.71 1355.38 2061.71 1349.3 2066.63 1344.38 2072.71 1344.38 2078.78 1344.38 2083.71 1349.3 2083.71 1355.38Z" stroke="#4472C4" stroke-width="3.4375" stroke-linejoin="round" stroke-miterlimit="10" fill="#4472C4"/><path d="M4381.71 1355.38C4381.71 1361.45 4376.78 1366.37 4370.71 1366.37 4364.63 1366.37 4359.71 1361.45 4359.71 1355.38 4359.71 1349.3 4364.63 1344.38 4370.71 1344.38 4376.78 1344.38 4381.71 1349.3 4381.71 1355.38Z" stroke="#4472C4" stroke-width="3.4375" stroke-linejoin="round" stroke-miterlimit="10" fill="#4472C4"/><path d="M5931.71 1355.38C5931.71 1361.45 5926.78 1366.37 5920.71 1366.37 5914.63 1366.37 5909.71 1361.45 5909.71 1355.38 5909.71 1349.3 5914.63 1344.38 5920.71 1344.38 5926.78 1344.38 5931.71 1349.3 5931.71 1355.38Z" stroke="#4472C4" stroke-width="3.4375" stroke-linejoin="round" stroke-miterlimit="10" fill="#4472C4"/><path d="M1032.71 1355.38C1032.71 1361.45 1027.78 1366.37 1021.71 1366.37 1015.63 1366.37 1010.71 1361.45 1010.71 1355.38 1010.71 1349.3 1015.63 1344.38 1021.71 1344.38 1027.78 1344.38 1032.71 1349.3 1032.71 1355.38Z" stroke="#4472C4" stroke-width="3.4375" stroke-linejoin="round" stroke-miterlimit="10" fill="#4472C4"/><path d="M3833.71 1355.38C3833.71 1361.45 3828.78 1366.37 3822.71 1366.37 3816.63 1366.37 3811.71 1361.45 3811.71 1355.38 3811.71 1349.3 3816.63 1344.38 3822.71 1344.38 3828.78 1344.38 3833.71 1349.3 3833.71 1355.38Z" stroke="#4472C4" stroke-width="3.4375" stroke-linejoin="round" stroke-miterlimit="10" fill="#4472C4"/><path d="M5582.71 1355.38C5582.71 1361.45 5577.78 1366.37 5571.71 1366.37 5565.63 1366.37 5560.71 1361.45 5560.71 1355.38 5560.71 1349.3 5565.63 1344.38 5571.71 1344.38 5577.78 1344.38 5582.71 1349.3 5582.71 1355.38Z" stroke="#4472C4" stroke-width="3.4375" stroke-linejoin="round" stroke-miterlimit="10" fill="#4472C4"/><path d="M2630.71 1355.38C2630.71 1361.45 2625.78 1366.37 2619.71 1366.37 2613.63 1366.37 2608.71 1361.45 2608.71 1355.38 2608.71 1349.3 2613.63 1344.38 2619.71 1344.38 2625.78 1344.38 2630.71 1349.3 2630.71 1355.38Z" stroke="#4472C4" stroke-width="3.4375" stroke-linejoin="round" stroke-miterlimit="10" fill="#4472C4"/><path d="M1382.71 1355.38C1382.71 1361.45 1377.78 1366.37 1371.71 1366.37 1365.63 1366.37 1360.71 1361.45 1360.71 1355.38 1360.71 1349.3 1365.63 1344.38 1371.71 1344.38 1377.78 1344.38 1382.71 1349.3 1382.71 1355.38Z" stroke="#4472C4" stroke-width="3.4375" stroke-linejoin="round" stroke-miterlimit="10" fill="#4472C4"/><path d="M5429.71 1355.38C5429.71 1361.45 5424.78 1366.37 5418.71 1366.37 5412.63 1366.37 5407.71 1361.45 5407.71 1355.38 5407.71 1349.3 5412.63 1344.38 5418.71 1344.38 5424.78 1344.38 5429.71 1349.3 5429.71 1355.38Z" stroke="#4472C4" stroke-width="3.4375" stroke-linejoin="round" stroke-miterlimit="10" fill="#4472C4"/><path d="M2280.71 1355.38C2280.71 1361.45 2275.78 1366.37 2269.71 1366.37 2263.63 1366.37 2258.71 1361.45 2258.71 1355.38 2258.71 1349.3 2263.63 1344.38 2269.71 1344.38 2275.78 1344.38 2280.71 1349.3 2280.71 1355.38Z" stroke="#4472C4" stroke-width="3.4375" stroke-linejoin="round" stroke-miterlimit="10" fill="#4472C4"/><path d="M2281.71 1355.38C2281.71 1361.45 2276.78 1366.37 2270.71 1366.37 2264.63 1366.37 2259.71 1361.45 2259.71 1355.38 2259.71 1349.3 2264.63 1344.38 2270.71 1344.38 2276.78 1344.38 2281.71 1349.3 2281.71 1355.38Z" stroke="#4472C4" stroke-width="3.4375" stroke-linejoin="round" stroke-miterlimit="10" fill="#4472C4"/><path d="M3481.71 1355.38C3481.71 1361.45 3476.78 1366.37 3470.71 1366.37 3464.63 1366.37 3459.71 1361.45 3459.71 1355.38 3459.71 1349.3 3464.63 1344.38 3470.71 1344.38 3476.78 1344.38 3481.71 1349.3 3481.71 1355.38Z" stroke="#4472C4" stroke-width="3.4375" stroke-linejoin="round" stroke-miterlimit="10" fill="#4472C4"/><path d="M1580.71 1355.38C1580.71 1361.45 1575.78 1366.37 1569.71 1366.37 1563.63 1366.37 1558.71 1361.45 1558.71 1355.38 1558.71 1349.3 1563.63 1344.38 1569.71 1344.38 1575.78 1344.38 1580.71 1349.3 1580.71 1355.38Z" stroke="#4472C4" stroke-width="3.4375" stroke-linejoin="round" stroke-miterlimit="10" fill="#4472C4"/><path d="M1033.71 1355.38C1033.71 1361.45 1028.78 1366.37 1022.71 1366.37 1016.63 1366.37 1011.71 1361.45 1011.71 1355.38 1011.71 1349.3 1016.63 1344.38 1022.71 1344.38 1028.78 1344.38 1033.71 1349.3 1033.71 1355.38Z" stroke="#4472C4" stroke-width="3.4375" stroke-linejoin="round" stroke-miterlimit="10" fill="#4472C4"/><path d="M5430.71 1355.38C5430.71 1361.45 5425.78 1366.37 5419.71 1366.37 5413.63 1366.37 5408.71 1361.45 5408.71 1355.38 5408.71 1349.3 5413.63 1344.38 5419.71 1344.38 5425.78 1344.38 5430.71 1349.3 5430.71 1355.38Z" stroke="#4472C4" stroke-width="3.4375" stroke-linejoin="round" stroke-miterlimit="10" fill="#4472C4"/><path d="M4532.71 1355.38C4532.71 1361.45 4527.78 1366.37 4521.71 1366.37 4515.63 1366.37 4510.71 1361.45 4510.71 1355.38 4510.71 1349.3 4515.63 1344.38 4521.71 1344.38 4527.78 1344.38 4532.71 1349.3 4532.71 1355.38Z" stroke="#4472C4" stroke-width="3.4375" stroke-linejoin="round" stroke-miterlimit="10" fill="#4472C4"/><path d="M3831.71 1355.38C3831.71 1361.45 3826.78 1366.37 3820.71 1366.37 3814.63 1366.37 3809.71 1361.45 3809.71 1355.38 3809.71 1349.3 3814.63 1344.38 3820.71 1344.38 3826.78 1344.38 3831.71 1349.3 3831.71 1355.38Z" stroke="#4472C4" stroke-width="3.4375" stroke-linejoin="round" stroke-miterlimit="10" fill="#4472C4"/><path d="M2631.71 1355.38C2631.71 1361.45 2626.78 1366.37 2620.71 1366.37 2614.63 1366.37 2609.71 1361.45 2609.71 1355.38 2609.71 1349.3 2614.63 1344.38 2620.71 1344.38 2626.78 1344.38 2631.71 1349.3 2631.71 1355.38Z" stroke="#4472C4" stroke-width="3.4375" stroke-linejoin="round" stroke-miterlimit="10" fill="#4472C4"/><path d="M4029.71 1355.38C4029.71 1361.45 4024.78 1366.37 4018.71 1366.37 4012.63 1366.37 4007.71 1361.45 4007.71 1355.38 4007.71 1349.3 4012.63 1344.38 4018.71 1344.38 4024.78 1344.38 4029.71 1349.3 4029.71 1355.38Z" stroke="#4472C4" stroke-width="3.4375" stroke-linejoin="round" stroke-miterlimit="10" fill="#4472C4"/><path d="M3133.71 1355.38C3133.71 1361.45 3128.78 1366.37 3122.71 1366.37 3116.63 1366.37 3111.71 1361.45 3111.71 1355.38 3111.71 1349.3 3116.63 1344.38 3122.71 1344.38 3128.78 1344.38 3133.71 1349.3 3133.71 1355.38Z" stroke="#4472C4" stroke-width="3.4375" stroke-linejoin="round" stroke-miterlimit="10" fill="#4472C4"/><path d="M2783.71 1355.38C2783.71 1361.45 2778.78 1366.37 2772.71 1366.37 2766.63 1366.37 2761.71 1361.45 2761.71 1355.38 2761.71 1349.3 2766.63 1344.38 2772.71 1344.38 2778.78 1344.38 2783.71 1349.3 2783.71 1355.38Z" stroke="#4472C4" stroke-width="3.4375" stroke-linejoin="round" stroke-miterlimit="10" fill="#4472C4"/><path d="M5581.71 1355.38C5581.71 1361.45 5576.78 1366.37 5570.71 1366.37 5564.63 1366.37 5559.71 1361.45 5559.71 1355.38 5559.71 1349.3 5564.63 1344.38 5570.71 1344.38 5576.78 1344.38 5581.71 1349.3 5581.71 1355.38Z" stroke="#4472C4" stroke-width="3.4375" stroke-linejoin="round" stroke-miterlimit="10" fill="#4472C4"/><path d="M1230.71 1355.38C1230.71 1361.45 1225.78 1366.37 1219.71 1366.37 1213.63 1366.37 1208.71 1361.45 1208.71 1355.38 1208.71 1349.3 1213.63 1344.38 1219.71 1344.38 1225.78 1344.38 1230.71 1349.3 1230.71 1355.38Z" stroke="#4472C4" stroke-width="3.4375" stroke-linejoin="round" stroke-miterlimit="10" fill="#4472C4"/><path d="M1733.71 1355.38C1733.71 1361.45 1728.78 1366.37 1722.71 1366.37 1716.63 1366.37 1711.71 1361.45 1711.71 1355.38 1711.71 1349.3 1716.63 1344.38 1722.71 1344.38 1728.78 1344.38 1733.71 1349.3 1733.71 1355.38Z" stroke="#4472C4" stroke-width="3.4375" stroke-linejoin="round" stroke-miterlimit="10" fill="#4472C4"/><path d="M3331.71 1355.38C3331.71 1361.45 3326.78 1366.37 3320.71 1366.37 3314.63 1366.37 3309.71 1361.45 3309.71 1355.38 3309.71 1349.3 3314.63 1344.38 3320.71 1344.38 3326.78 1344.38 3331.71 1349.3 3331.71 1355.38Z" stroke="#4472C4" stroke-width="3.4375" stroke-linejoin="round" stroke-miterlimit="10" fill="#4472C4"/><path d="M6631.71 1355.38C6631.71 1361.45 6626.78 1366.37 6620.71 1366.37 6614.63 1366.37 6609.71 1361.45 6609.71 1355.38 6609.71 1349.3 6614.63 1344.38 6620.71 1344.38 6626.78 1344.38 6631.71 1349.3 6631.71 1355.38Z" stroke="#4472C4" stroke-width="3.4375" stroke-linejoin="round" stroke-miterlimit="10" fill="#4472C4"/><path d="M2082.71 1355.38C2082.71 1361.45 2077.78 1366.37 2071.71 1366.37 2065.63 1366.37 2060.71 1361.45 2060.71 1355.38 2060.71 1349.3 2065.63 1344.38 2071.71 1344.38 2077.78 1344.38 2082.71 1349.3 2082.71 1355.38Z" stroke="#4472C4" stroke-width="3.4375" stroke-linejoin="round" stroke-miterlimit="10" fill="#4472C4"/><path d="M1931.71 1355.38C1931.71 1361.45 1926.78 1366.37 1920.71 1366.37 1914.63 1366.37 1909.71 1361.45 1909.71 1355.38 1909.71 1349.3 1914.63 1344.38 1920.71 1344.38 1926.78 1344.38 1931.71 1349.3 1931.71 1355.38Z" stroke="#4472C4" stroke-width="3.4375" stroke-linejoin="round" stroke-miterlimit="10" fill="#4472C4"/><path d="M1581.71 1355.38C1581.71 1361.45 1576.78 1366.37 1570.71 1366.37 1564.63 1366.37 1559.71 1361.45 1559.71 1355.38 1559.71 1349.3 1564.63 1344.38 1570.71 1344.38 1576.78 1344.38 1581.71 1349.3 1581.71 1355.38Z" stroke="#4472C4" stroke-width="3.4375" stroke-linejoin="round" stroke-miterlimit="10" fill="#4472C4"/><path d="M4181.71 1355.38C4181.71 1361.45 4176.78 1366.37 4170.71 1366.37 4164.63 1366.37 4159.71 1361.45 4159.71 1355.38 4159.71 1349.3 4164.63 1344.38 4170.71 1344.38 4176.78 1344.38 4181.71 1349.3 4181.71 1355.38Z" stroke="#4472C4" stroke-width="3.4375" stroke-linejoin="round" stroke-miterlimit="10" fill="#4472C4"/></g><g clip-path="url(#clip6)"><text fill="#595959" font-family="Calibri,Calibri_MSFontService,sans-serif" font-weight="400" font-size="41" transform="matrix(1 0 0 1 809.658 1989)">0</text></g><g clip-path="url(#clip7)"><text fill="#595959" font-family="Calibri,Calibri_MSFontService,sans-serif" font-weight="400" font-size="41" transform="matrix(1 0 0 1 778.354 1910)">0.1</text></g><g clip-path="url(#clip8)"><text fill="#595959" font-family="Calibri,Calibri_MSFontService,sans-serif" font-weight="400" font-size="41" transform="matrix(1 0 0 1 778.354 1832)">0.2</text></g><g clip-path="url(#clip9)"><text fill="#595959" font-family="Calibri,Calibri_MSFontService,sans-serif" font-weight="400" font-size="41" transform="matrix(1 0 0 1 778.354 1754)">0.3</text></g><g clip-path="url(#clip10)"><text fill="#595959" font-family="Calibri,Calibri_MSFontService,sans-serif" font-weight="400" font-size="41" transform="matrix(1 0 0 1 778.354 1675)">0.4</text></g><g clip-path="url(#clip11)"><text fill="#595959" font-family="Calibri,Calibri_MSFontService,sans-serif" font-weight="400" font-size="41" transform="matrix(1 0 0 1 778.354 1597)">0.5</text></g><g clip-path="url(#clip12)"><text fill="#595959" font-family="Calibri,Calibri_MSFontService,sans-serif" font-weight="400" font-size="41" transform="matrix(1 0 0 1 778.354 1519)">0.6</text></g><g clip-path="url(#clip13)"><text fill="#595959" font-family="Calibri,Calibri_MSFontService,sans-serif" font-weight="400" font-size="41" transform="matrix(1 0 0 1 778.354 1440)">0.7</text></g><g clip-path="url(#clip14)"><text fill="#595959" font-family="Calibri,Calibri_MSFontService,sans-serif" font-weight="400" font-size="41" transform="matrix(1 0 0 1 778.354 1362)">0.8</text></g><g clip-path="url(#clip15)"><text fill="#595959" font-family="Calibri,Calibri_MSFontService,sans-serif" font-weight="400" font-size="41" transform="matrix(1 0 0 1 778.354 1284)">0.9</text></g><g clip-path="url(#clip16)"><text fill="#595959" font-family="Calibri,Calibri_MSFontService,sans-serif" font-weight="400" font-size="41" transform="matrix(1 0 0 1 858.375 2042)">0</text></g><g clip-path="url(#clip17)"><text fill="#595959" font-family="Calibri,Calibri_MSFontService,sans-serif" font-weight="400" font-size="41" transform="matrix(1 0 0 1 1684.66 2042)">2000</text></g><g clip-path="url(#clip18)"><text fill="#595959" font-family="Calibri,Calibri_MSFontService,sans-serif" font-weight="400" font-size="41" transform="matrix(1 0 0 1 2542.3 2042)">4000</text></g><g clip-path="url(#clip19)"><text fill="#595959" font-family="Calibri,Calibri_MSFontService,sans-serif" font-weight="400" font-size="41" transform="matrix(1 0 0 1 3399.94 2042)">6000</text></g><g clip-path="url(#clip20)"><text fill="#595959" font-family="Calibri,Calibri_MSFontService,sans-serif" font-weight="400" font-size="41" transform="matrix(1 0 0 1 4257.57 2042)">8000</text></g><g clip-path="url(#clip21)"><text fill="#595959" font-family="Calibri,Calibri_MSFontService,sans-serif" font-weight="400" font-size="41" transform="matrix(1 0 0 1 5104.76 2042)">10000</text></g><g clip-path="url(#clip22)"><text fill="#595959" font-family="Calibri,Calibri_MSFontService,sans-serif" font-weight="400" font-size="41" transform="matrix(1 0 0 1 5962.4 2042)">12000</text></g><g clip-path="url(#clip23)"><text fill="#595959" font-family="Calibri,Calibri_MSFontService,sans-serif" font-weight="400" font-size="41" transform="matrix(1 0 0 1 6820.04 2042)">14000</text></g><g clip-path="url(#clip24)"><text fill="#595959" font-family="Calibri,Calibri_MSFontService,sans-serif" font-weight="400" font-size="41" transform="matrix(1 0 0 1 7677.67 2042)">16000</text></g><g clip-path="url(#clip25)"><text fill="#595959" font-family="DengXian,DengXian_MSFontService,sans-serif" font-weight="400" font-size="46" transform="matrix(6.12323e-17 -1 1 6.12323e-17 746.5 1716)"></text></g><g clip-path="url(#clip26)"><text fill="#595959" font-family="DengXian,DengXian_MSFontService,sans-serif" font-weight="400" font-size="46" transform="matrix(1 0 0 1 4184.79 2111)"></text></g><rect x="645.5" y="1222.5" width="7188" height="965" stroke="#D9D9D9" stroke-width="3.4375" stroke-linejoin="round" stroke-miterlimit="10" fill="none"/></g></svg>