<svg width="7366" height="1005" xmlns="http://www.w3.org/2000/svg" xmlns:xlink="http://www.w3.org/1999/xlink" overflow="hidden"><defs><clipPath id="clip0"><rect x="655" y="1270" width="7366" height="1005"/></clipPath><clipPath id="clip1"><rect x="655" y="1270" width="7363" height="1003"/></clipPath><clipPath id="clip2"><rect x="655" y="1270" width="7363" height="1003"/></clipPath><clipPath id="clip3"><rect x="655" y="1270" width="7363" height="1003"/></clipPath><clipPath id="clip4"><rect x="655" y="1270" width="7363" height="1003"/></clipPath><clipPath id="clip5"><rect x="655" y="1270" width="7363" height="1003"/></clipPath><clipPath id="clip6"><rect x="655" y="1270" width="7363" height="1003"/></clipPath><clipPath id="clip7"><rect x="655" y="1270" width="7363" height="1003"/></clipPath><clipPath id="clip8"><rect x="655" y="1270" width="7363" height="1003"/></clipPath><clipPath id="clip9"><rect x="655" y="1270" width="7363" height="1003"/></clipPath><clipPath id="clip10"><rect x="655" y="1270" width="7363" height="1003"/></clipPath><clipPath id="clip11"><rect x="655" y="1270" width="7363" height="1003"/></clipPath><clipPath id="clip12"><rect x="655" y="1270" width="7363" height="1003"/></clipPath><clipPath id="clip13"><rect x="655" y="1270" width="7363" height="1003"/></clipPath><clipPath id="clip14"><rect x="655" y="1270" width="7363" height="1003"/></clipPath><clipPath id="clip15"><rect x="655" y="1270" width="7363" height="1003"/></clipPath><clipPath id="clip16"><rect x="655" y="1270" width="7363" height="1003"/></clipPath><clipPath id="clip17"><rect x="655" y="1270" width="7363" height="1003"/></clipPath><clipPath id="clip18"><rect x="655" y="1270" width="7363" height="1003"/></clipPath><clipPath id="clip19"><rect x="655" y="1270" width="7363" height="1003"/></clipPath><clipPath id="clip20"><rect x="655" y="1270" width="7363" height="1003"/></clipPath><clipPath id="clip21"><rect x="655" y="1270" width="7363" height="1003"/></clipPath><clipPath id="clip22"><rect x="655" y="1270" width="7363" height="1003"/></clipPath><clipPath id="clip23"><rect x="655" y="1270" width="7363" height="1003"/></clipPath><clipPath id="clip24"><rect x="655" y="1270" width="7363" height="1003"/></clipPath></defs><g clip-path="url(#clip0)" transform="translate(-655 -1270)"><rect x="656" y="1271" width="7363" height="1002" fill="#FFFFFF"/><g clip-path="url(#clip1)"><path d="M879.5 1981.57 7916.5 1981.57M879.5 1898.56 7916.5 1898.56M879.5 1816.56 7916.5 1816.56M879.5 1733.56 7916.5 1733.56M879.5 1651.55 7916.5 1651.55M879.5 1568.55 7916.5 1568.55M879.5 1486.55 7916.5 1486.55M879.5 1403.55 7916.5 1403.55M879.5 1321.5 7916.5 1321.5" stroke="#D9D9D9" stroke-width="3.4375" stroke-linejoin="round" stroke-miterlimit="10" fill="none"/></g><g clip-path="url(#clip2)"><path d="M2052.57 1321.5 2052.57 2063.5M3224.61 1321.5 3224.61 2063.5M4397.64 1321.5 4397.64 2063.5M5570.68 1321.5 5570.68 2063.5M6743.72 1321.5 6743.72 2063.5M7916.5 1321.5 7916.5 2063.5" stroke="#D9D9D9" stroke-width="3.4375" stroke-linejoin="round" stroke-miterlimit="10" fill="none"/></g><g clip-path="url(#clip3)"><path d="M0 0 0.000360892 742" stroke="#BFBFBF" stroke-width="3.4375" stroke-linejoin="round" stroke-miterlimit="10" fill="none" fill-rule="evenodd" transform="matrix(1 0 0 -1 879.5 2063.5)"/></g><g clip-path="url(#clip4)"><path d="M879.5 2063.5 7916.5 2063.5" stroke="#BFBFBF" stroke-width="3.4375" stroke-linejoin="round" stroke-miterlimit="10" fill="none" fill-rule="evenodd"/></g><g clip-path="url(#clip5)"><path d="M4927.5 1627.25C4927.5 1633.32 4922.57 1638.25 4916.5 1638.25 4910.42 1638.25 4905.5 1633.32 4905.5 1627.25 4905.5 1621.17 4910.42 1616.25 4916.5 1616.25 4922.57 1616.25 4927.5 1621.17 4927.5 1627.25Z" stroke="#4472C4" stroke-width="3.4375" stroke-linejoin="round" stroke-miterlimit="10" fill="#4472C4"/><path d="M6369.5 1626.25C6369.5 1632.32 6364.57 1637.25 6358.5 1637.25 6352.42 1637.25 6347.5 1632.32 6347.5 1626.25 6347.5 1620.17 6352.42 1615.25 6358.5 1615.25 6364.57 1615.25 6369.5 1620.17 6369.5 1626.25Z" stroke="#4472C4" stroke-width="3.4375" stroke-linejoin="round" stroke-miterlimit="10" fill="#4472C4"/><path d="M5404.5 1625.25C5404.5 1631.32 5399.57 1636.25 5393.5 1636.25 5387.42 1636.25 5382.5 1631.32 5382.5 1625.25 5382.5 1619.17 5387.42 1614.25 5393.5 1614.25 5399.57 1614.25 5404.5 1619.17 5404.5 1625.25Z" stroke="#4472C4" stroke-width="3.4375" stroke-linejoin="round" stroke-miterlimit="10" fill="#4472C4"/><path d="M5891.5 1624.25C5891.5 1630.32 5886.57 1635.25 5880.5 1635.25 5874.42 1635.25 5869.5 1630.32 5869.5 1624.25 5869.5 1618.17 5874.42 1613.25 5880.5 1613.25 5886.57 1613.25 5891.5 1618.17 5891.5 1624.25Z" stroke="#4472C4" stroke-width="3.4375" stroke-linejoin="round" stroke-miterlimit="10" fill="#4472C4"/><path d="M5412.5 1624.25C5412.5 1630.32 5407.57 1635.25 5401.5 1635.25 5395.42 1635.25 5390.5 1630.32 5390.5 1624.25 5390.5 1618.17 5395.42 1613.25 5401.5 1613.25 5407.57 1613.25 5412.5 1618.17 5412.5 1624.25Z" stroke="#4472C4" stroke-width="3.4375" stroke-linejoin="round" stroke-miterlimit="10" fill="#4472C4"/><path d="M6363.5 1624.25C6363.5 1630.32 6358.57 1635.25 6352.5 1635.25 6346.42 1635.25 6341.5 1630.32 6341.5 1624.25 6341.5 1618.17 6346.42 1613.25 6352.5 1613.25 6358.57 1613.25 6363.5 1618.17 6363.5 1624.25Z" stroke="#4472C4" stroke-width="3.4375" stroke-linejoin="round" stroke-miterlimit="10" fill="#4472C4"/><path d="M6155.5 1623.25C6155.5 1629.32 6150.57 1634.25 6144.5 1634.25 6138.42 1634.25 6133.5 1629.32 6133.5 1623.25 6133.5 1617.17 6138.42 1612.25 6144.5 1612.25 6150.57 1612.25 6155.5 1617.17 6155.5 1623.25Z" stroke="#4472C4" stroke-width="3.4375" stroke-linejoin="round" stroke-miterlimit="10" fill="#4472C4"/><path d="M6364.5 1623.25C6364.5 1629.32 6359.57 1634.25 6353.5 1634.25 6347.42 1634.25 6342.5 1629.32 6342.5 1623.25 6342.5 1617.17 6347.42 1612.25 6353.5 1612.25 6359.57 1612.25 6364.5 1617.17 6364.5 1623.25Z" stroke="#4472C4" stroke-width="3.4375" stroke-linejoin="round" stroke-miterlimit="10" fill="#4472C4"/><path d="M4719.5 1623.25C4719.5 1629.32 4714.57 1634.25 4708.5 1634.25 4702.42 1634.25 4697.5 1629.32 4697.5 1623.25 4697.5 1617.17 4702.42 1612.25 4708.5 1612.25 4714.57 1612.25 4719.5 1617.17 4719.5 1623.25Z" stroke="#4472C4" stroke-width="3.4375" stroke-linejoin="round" stroke-miterlimit="10" fill="#4472C4"/><path d="M6843.5 1623.25C6843.5 1629.32 6838.57 1634.25 6832.5 1634.25 6826.42 1634.25 6821.5 1629.32 6821.5 1623.25 6821.5 1617.17 6826.42 1612.25 6832.5 1612.25 6838.57 1612.25 6843.5 1617.17 6843.5 1623.25Z" stroke="#4472C4" stroke-width="3.4375" stroke-linejoin="round" stroke-miterlimit="10" fill="#4472C4"/><path d="M4721.5 1622.25C4721.5 1628.32 4716.57 1633.25 4710.5 1633.25 4704.42 1633.25 4699.5 1628.32 4699.5 1622.25 4699.5 1616.17 4704.42 1611.25 4710.5 1611.25 4716.57 1611.25 4721.5 1616.17 4721.5 1622.25Z" stroke="#4472C4" stroke-width="3.4375" stroke-linejoin="round" stroke-miterlimit="10" fill="#4472C4"/><path d="M4925.5 1622.25C4925.5 1628.32 4920.57 1633.25 4914.5 1633.25 4908.42 1633.25 4903.5 1628.32 4903.5 1622.25 4903.5 1616.17 4908.42 1611.25 4914.5 1611.25 4920.57 1611.25 4925.5 1616.17 4925.5 1622.25Z" stroke="#4472C4" stroke-width="3.4375" stroke-linejoin="round" stroke-miterlimit="10" fill="#4472C4"/><path d="M7110.5 1622.25C7110.5 1628.32 7105.57 1633.25 7099.5 1633.25 7093.42 1633.25 7088.5 1628.32 7088.5 1622.25 7088.5 1616.17 7093.42 1611.25 7099.5 1611.25 7105.57 1611.25 7110.5 1616.17 7110.5 1622.25Z" stroke="#4472C4" stroke-width="3.4375" stroke-linejoin="round" stroke-miterlimit="10" fill="#4472C4"/><path d="M6157.5 1620.25C6157.5 1626.32 6152.57 1631.25 6146.5 1631.25 6140.42 1631.25 6135.5 1626.32 6135.5 1620.25 6135.5 1614.17 6140.42 1609.25 6146.5 1609.25 6152.57 1609.25 6157.5 1614.17 6157.5 1620.25Z" stroke="#4472C4" stroke-width="3.4375" stroke-linejoin="round" stroke-miterlimit="10" fill="#4472C4"/><path d="M6839.5 1620.25C6839.5 1626.32 6834.57 1631.25 6828.5 1631.25 6822.42 1631.25 6817.5 1626.32 6817.5 1620.25 6817.5 1614.17 6822.42 1609.25 6828.5 1609.25 6834.57 1609.25 6839.5 1614.17 6839.5 1620.25Z" stroke="#4472C4" stroke-width="3.4375" stroke-linejoin="round" stroke-miterlimit="10" fill="#4472C4"/><path d="M5886.5 1415.25C5886.5 1421.32 5881.57 1426.25 5875.5 1426.25 5869.42 1426.25 5864.5 1421.32 5864.5 1415.25 5864.5 1409.17 5869.42 1404.25 5875.5 1404.25 5881.57 1404.25 5886.5 1409.17 5886.5 1415.25Z" stroke="#4472C4" stroke-width="3.4375" stroke-linejoin="round" stroke-miterlimit="10" fill="#4472C4"/><path d="M6364.5 1413.25C6364.5 1419.32 6359.57 1424.25 6353.5 1424.25 6347.42 1424.25 6342.5 1419.32 6342.5 1413.25 6342.5 1407.17 6347.42 1402.25 6353.5 1402.25 6359.57 1402.25 6364.5 1407.17 6364.5 1413.25Z" stroke="#4472C4" stroke-width="3.4375" stroke-linejoin="round" stroke-miterlimit="10" fill="#4472C4"/><path d="M3769.5 1413.25C3769.5 1419.32 3764.57 1424.25 3758.5 1424.25 3752.42 1424.25 3747.5 1419.32 3747.5 1413.25 3747.5 1407.17 3752.42 1402.25 3758.5 1402.25 3764.57 1402.25 3769.5 1407.17 3769.5 1413.25Z" stroke="#4472C4" stroke-width="3.4375" stroke-linejoin="round" stroke-miterlimit="10" fill="#4472C4"/><path d="M4720.5 1413.25C4720.5 1419.32 4715.57 1424.25 4709.5 1424.25 4703.42 1424.25 4698.5 1419.32 4698.5 1413.25 4698.5 1407.17 4703.42 1402.25 4709.5 1402.25 4715.57 1402.25 4720.5 1407.17 4720.5 1413.25Z" stroke="#4472C4" stroke-width="3.4375" stroke-linejoin="round" stroke-miterlimit="10" fill="#4472C4"/><path d="M1576.5 1413.25C1576.5 1419.32 1571.57 1424.25 1565.5 1424.25 1559.42 1424.25 1554.5 1419.32 1554.5 1413.25 1554.5 1407.17 1559.42 1402.25 1565.5 1402.25 1571.57 1402.25 1576.5 1407.17 1576.5 1413.25Z" stroke="#4472C4" stroke-width="3.4375" stroke-linejoin="round" stroke-miterlimit="10" fill="#4472C4"/><path d="M5884.5 1413.25C5884.5 1419.32 5879.57 1424.25 5873.5 1424.25 5867.42 1424.25 5862.5 1419.32 5862.5 1413.25 5862.5 1407.17 5867.42 1402.25 5873.5 1402.25 5879.57 1402.25 5884.5 1407.17 5884.5 1413.25Z" stroke="#4472C4" stroke-width="3.4375" stroke-linejoin="round" stroke-miterlimit="10" fill="#4472C4"/><path d="M6632.5 1413.25C6632.5 1419.32 6627.57 1424.25 6621.5 1424.25 6615.42 1424.25 6610.5 1419.32 6610.5 1413.25 6610.5 1407.17 6615.42 1402.25 6621.5 1402.25 6627.57 1402.25 6632.5 1407.17 6632.5 1413.25Z" stroke="#4472C4" stroke-width="3.4375" stroke-linejoin="round" stroke-miterlimit="10" fill="#4472C4"/><path d="M3284.5 1413.25C3284.5 1419.32 3279.57 1424.25 3273.5 1424.25 3267.42 1424.25 3262.5 1419.32 3262.5 1413.25 3262.5 1407.17 3267.42 1402.25 3273.5 1402.25 3279.57 1402.25 3284.5 1407.17 3284.5 1413.25Z" stroke="#4472C4" stroke-width="3.4375" stroke-linejoin="round" stroke-miterlimit="10" fill="#4472C4"/><path d="M3498.5 1412.25C3498.5 1418.32 3493.57 1423.25 3487.5 1423.25 3481.42 1423.25 3476.5 1418.32 3476.5 1412.25 3476.5 1406.17 3481.42 1401.25 3487.5 1401.25 3493.57 1401.25 3498.5 1406.17 3498.5 1412.25Z" stroke="#4472C4" stroke-width="3.4375" stroke-linejoin="round" stroke-miterlimit="10" fill="#4472C4"/><path d="M1578.5 1412.25C1578.5 1418.32 1573.57 1423.25 1567.5 1423.25 1561.42 1423.25 1556.5 1418.32 1556.5 1412.25 1556.5 1406.17 1561.42 1401.25 1567.5 1401.25 1573.57 1401.25 1578.5 1406.17 1578.5 1412.25Z" stroke="#4472C4" stroke-width="3.4375" stroke-linejoin="round" stroke-miterlimit="10" fill="#4472C4"/><path d="M1370.5 1412.25C1370.5 1418.32 1365.57 1423.25 1359.5 1423.25 1353.42 1423.25 1348.5 1418.32 1348.5 1412.25 1348.5 1406.17 1353.42 1401.25 1359.5 1401.25 1365.57 1401.25 1370.5 1406.17 1370.5 1412.25Z" stroke="#4472C4" stroke-width="3.4375" stroke-linejoin="round" stroke-miterlimit="10" fill="#4472C4"/><path d="M2812.5 1412.25C2812.5 1418.32 2807.57 1423.25 2801.5 1423.25 2795.42 1423.25 2790.5 1418.32 2790.5 1412.25 2790.5 1406.17 2795.42 1401.25 2801.5 1401.25 2807.57 1401.25 2812.5 1406.17 2812.5 1412.25Z" stroke="#4472C4" stroke-width="3.4375" stroke-linejoin="round" stroke-miterlimit="10" fill="#4472C4"/><path d="M6361.5 1412.25C6361.5 1418.32 6356.57 1423.25 6350.5 1423.25 6344.42 1423.25 6339.5 1418.32 6339.5 1412.25 6339.5 1406.17 6344.42 1401.25 6350.5 1401.25 6356.57 1401.25 6361.5 1406.17 6361.5 1412.25Z" stroke="#4472C4" stroke-width="3.4375" stroke-linejoin="round" stroke-miterlimit="10" fill="#4472C4"/><path d="M5196.5 1412.25C5196.5 1418.32 5191.57 1423.25 5185.5 1423.25 5179.42 1423.25 5174.5 1418.32 5174.5 1412.25 5174.5 1406.17 5179.42 1401.25 5185.5 1401.25 5191.57 1401.25 5196.5 1406.17 5196.5 1412.25Z" stroke="#4472C4" stroke-width="3.4375" stroke-linejoin="round" stroke-miterlimit="10" fill="#4472C4"/><path d="M5200.5 1412.25C5200.5 1418.32 5195.57 1423.25 5189.5 1423.25 5183.42 1423.25 5178.5 1418.32 5178.5 1412.25 5178.5 1406.17 5183.42 1401.25 5189.5 1401.25 5195.57 1401.25 5200.5 1406.17 5200.5 1412.25Z" stroke="#4472C4" stroke-width="3.4375" stroke-linejoin="round" stroke-miterlimit="10" fill="#4472C4"/><path d="M891.499 1412.25C891.499 1418.32 886.574 1423.25 880.499 1423.25 874.425 1423.25 869.5 1418.32 869.5 1412.25 869.5 1406.17 874.425 1401.25 880.499 1401.25 886.574 1401.25 891.499 1406.17 891.499 1412.25Z" stroke="#4472C4" stroke-width="3.4375" stroke-linejoin="round" stroke-miterlimit="10" fill="#4472C4"/><path d="M2063.5 1412.25C2063.5 1418.32 2058.57 1423.25 2052.5 1423.25 2046.42 1423.25 2041.5 1418.32 2041.5 1412.25 2041.5 1406.17 2046.42 1401.25 2052.5 1401.25 2058.57 1401.25 2063.5 1406.17 2063.5 1412.25Z" stroke="#4472C4" stroke-width="3.4375" stroke-linejoin="round" stroke-miterlimit="10" fill="#4472C4"/><path d="M6634.5 1412.25C6634.5 1418.32 6629.57 1423.25 6623.5 1423.25 6617.42 1423.25 6612.5 1418.32 6612.5 1412.25 6612.5 1406.17 6617.42 1401.25 6623.5 1401.25 6629.57 1401.25 6634.5 1406.17 6634.5 1412.25Z" stroke="#4472C4" stroke-width="3.4375" stroke-linejoin="round" stroke-miterlimit="10" fill="#4472C4"/><path d="M5198.5 1412.25C5198.5 1418.32 5193.57 1423.25 5187.5 1423.25 5181.42 1423.25 5176.5 1418.32 5176.5 1412.25 5176.5 1406.17 5181.42 1401.25 5187.5 1401.25 5193.57 1401.25 5198.5 1406.17 5198.5 1412.25Z" stroke="#4472C4" stroke-width="3.4375" stroke-linejoin="round" stroke-miterlimit="10" fill="#4472C4"/><path d="M3972.5 1412.25C3972.5 1418.32 3967.57 1423.25 3961.5 1423.25 3955.42 1423.25 3950.5 1418.32 3950.5 1412.25 3950.5 1406.17 3955.42 1401.25 3961.5 1401.25 3967.57 1401.25 3972.5 1406.17 3972.5 1412.25Z" stroke="#4472C4" stroke-width="3.4375" stroke-linejoin="round" stroke-miterlimit="10" fill="#4472C4"/><path d="M2326.5 1411.25C2326.5 1417.32 2321.57 1422.25 2315.5 1422.25 2309.42 1422.25 2304.5 1417.32 2304.5 1411.25 2304.5 1405.17 2309.42 1400.25 2315.5 1400.25 2321.57 1400.25 2326.5 1405.17 2326.5 1411.25Z" stroke="#4472C4" stroke-width="3.4375" stroke-linejoin="round" stroke-miterlimit="10" fill="#4472C4"/><path d="M4721.5 1411.25C4721.5 1417.32 4716.57 1422.25 4710.5 1422.25 4704.42 1422.25 4699.5 1417.32 4699.5 1411.25 4699.5 1405.17 4704.42 1400.25 4710.5 1400.25 4716.57 1400.25 4721.5 1405.17 4721.5 1411.25Z" stroke="#4472C4" stroke-width="3.4375" stroke-linejoin="round" stroke-miterlimit="10" fill="#4472C4"/><path d="M5675.5 1411.25C5675.5 1417.32 5670.57 1422.25 5664.5 1422.25 5658.42 1422.25 5653.5 1417.32 5653.5 1411.25 5653.5 1405.17 5658.42 1400.25 5664.5 1400.25 5670.57 1400.25 5675.5 1405.17 5675.5 1411.25Z" stroke="#4472C4" stroke-width="3.4375" stroke-linejoin="round" stroke-miterlimit="10" fill="#4472C4"/><path d="M3969.5 1411.25C3969.5 1417.32 3964.57 1422.25 3958.5 1422.25 3952.42 1422.25 3947.5 1417.32 3947.5 1411.25 3947.5 1405.17 3952.42 1400.25 3958.5 1400.25 3964.57 1400.25 3969.5 1405.17 3969.5 1411.25Z" stroke="#4472C4" stroke-width="3.4375" stroke-linejoin="round" stroke-miterlimit="10" fill="#4472C4"/><path d="M2327.5 1411.25C2327.5 1417.32 2322.57 1422.25 2316.5 1422.25 2310.42 1422.25 2305.5 1417.32 2305.5 1411.25 2305.5 1405.17 2310.42 1400.25 2316.5 1400.25 2322.57 1400.25 2327.5 1405.17 2327.5 1411.25Z" stroke="#4472C4" stroke-width="3.4375" stroke-linejoin="round" stroke-miterlimit="10" fill="#4472C4"/><path d="M6841.5 1411.25C6841.5 1417.32 6836.57 1422.25 6830.5 1422.25 6824.42 1422.25 6819.5 1417.32 6819.5 1411.25 6819.5 1405.17 6824.42 1400.25 6830.5 1400.25 6836.57 1400.25 6841.5 1405.17 6841.5 1411.25Z" stroke="#4472C4" stroke-width="3.4375" stroke-linejoin="round" stroke-miterlimit="10" fill="#4472C4"/><path d="M4449.5 1411.25C4449.5 1417.32 4444.57 1422.25 4438.5 1422.25 4432.42 1422.25 4427.5 1417.32 4427.5 1411.25 4427.5 1405.17 4432.42 1400.25 4438.5 1400.25 4444.57 1400.25 4449.5 1405.17 4449.5 1411.25Z" stroke="#4472C4" stroke-width="3.4375" stroke-linejoin="round" stroke-miterlimit="10" fill="#4472C4"/><path d="M6848.5 1411.25C6848.5 1417.32 6843.57 1422.25 6837.5 1422.25 6831.42 1422.25 6826.5 1417.32 6826.5 1411.25 6826.5 1405.17 6831.42 1400.25 6837.5 1400.25 6843.57 1400.25 6848.5 1405.17 6848.5 1411.25Z" stroke="#4472C4" stroke-width="3.4375" stroke-linejoin="round" stroke-miterlimit="10" fill="#4472C4"/><path d="M898.499 1411.25C898.499 1417.32 893.574 1422.25 887.499 1422.25 881.424 1422.25 876.5 1417.32 876.5 1411.25 876.5 1405.17 881.424 1400.25 887.499 1400.25 893.574 1400.25 898.499 1405.17 898.499 1411.25Z" stroke="#4472C4" stroke-width="3.4375" stroke-linejoin="round" stroke-miterlimit="10" fill="#4472C4"/><path d="M1849.5 1411.25C1849.5 1417.32 1844.57 1422.25 1838.5 1422.25 1832.42 1422.25 1827.5 1417.32 1827.5 1411.25 1827.5 1405.17 1832.42 1400.25 1838.5 1400.25 1844.57 1400.25 1849.5 1405.17 1849.5 1411.25Z" stroke="#4472C4" stroke-width="3.4375" stroke-linejoin="round" stroke-miterlimit="10" fill="#4472C4"/><path d="M6640.5 1411.25C6640.5 1417.32 6635.57 1422.25 6629.5 1422.25 6623.42 1422.25 6618.5 1417.32 6618.5 1411.25 6618.5 1405.17 6623.42 1400.25 6629.5 1400.25 6635.57 1400.25 6640.5 1405.17 6640.5 1411.25Z" stroke="#4472C4" stroke-width="3.4375" stroke-linejoin="round" stroke-miterlimit="10" fill="#4472C4"/><path d="M4451.5 1411.25C4451.5 1417.32 4446.57 1422.25 4440.5 1422.25 4434.42 1422.25 4429.5 1417.32 4429.5 1411.25 4429.5 1405.17 4434.42 1400.25 4440.5 1400.25 4446.57 1400.25 4451.5 1405.17 4451.5 1411.25Z" stroke="#4472C4" stroke-width="3.4375" stroke-linejoin="round" stroke-miterlimit="10" fill="#4472C4"/><path d="M1580.5 1411.25C1580.5 1417.32 1575.57 1422.25 1569.5 1422.25 1563.42 1422.25 1558.5 1417.32 1558.5 1411.25 1558.5 1405.17 1563.42 1400.25 1569.5 1400.25 1575.57 1400.25 1580.5 1405.17 1580.5 1411.25Z" stroke="#4472C4" stroke-width="3.4375" stroke-linejoin="round" stroke-miterlimit="10" fill="#4472C4"/><path d="M2334.5 1411.25C2334.5 1417.32 2329.57 1422.25 2323.5 1422.25 2317.42 1422.25 2312.5 1417.32 2312.5 1411.25 2312.5 1405.17 2317.42 1400.25 2323.5 1400.25 2329.57 1400.25 2334.5 1405.17 2334.5 1411.25Z" stroke="#4472C4" stroke-width="3.4375" stroke-linejoin="round" stroke-miterlimit="10" fill="#4472C4"/><path d="M3494.5 1411.25C3494.5 1417.32 3489.57 1422.25 3483.5 1422.25 3477.42 1422.25 3472.5 1417.32 3472.5 1411.25 3472.5 1405.17 3477.42 1400.25 3483.5 1400.25 3489.57 1400.25 3494.5 1405.17 3494.5 1411.25Z" stroke="#4472C4" stroke-width="3.4375" stroke-linejoin="round" stroke-miterlimit="10" fill="#4472C4"/><path d="M3492.5 1411.25C3492.5 1417.32 3487.57 1422.25 3481.5 1422.25 3475.42 1422.25 3470.5 1417.32 3470.5 1411.25 3470.5 1405.17 3475.42 1400.25 3481.5 1400.25 3487.57 1400.25 3492.5 1405.17 3492.5 1411.25Z" stroke="#4472C4" stroke-width="3.4375" stroke-linejoin="round" stroke-miterlimit="10" fill="#4472C4"/><path d="M2541.5 1410.25C2541.5 1416.32 2536.57 1421.25 2530.5 1421.25 2524.42 1421.25 2519.5 1416.32 2519.5 1410.25 2519.5 1404.17 2524.42 1399.25 2530.5 1399.25 2536.57 1399.25 2541.5 1404.17 2541.5 1410.25Z" stroke="#4472C4" stroke-width="3.4375" stroke-linejoin="round" stroke-miterlimit="10" fill="#4472C4"/><path d="M2806.5 1410.25C2806.5 1416.32 2801.57 1421.25 2795.5 1421.25 2789.42 1421.25 2784.5 1416.32 2784.5 1410.25 2784.5 1404.17 2789.42 1399.25 2795.5 1399.25 2801.57 1399.25 2806.5 1404.17 2806.5 1410.25Z" stroke="#4472C4" stroke-width="3.4375" stroke-linejoin="round" stroke-miterlimit="10" fill="#4472C4"/><path d="M4239.5 1410.25C4239.5 1416.32 4234.57 1421.25 4228.5 1421.25 4222.42 1421.25 4217.5 1416.32 4217.5 1410.25 4217.5 1404.17 4222.42 1399.25 4228.5 1399.25 4234.57 1399.25 4239.5 1404.17 4239.5 1410.25Z" stroke="#4472C4" stroke-width="3.4375" stroke-linejoin="round" stroke-miterlimit="10" fill="#4472C4"/><path d="M894.499 1410.25C894.499 1416.32 889.574 1421.25 883.499 1421.25 877.424 1421.25 872.5 1416.32 872.5 1410.25 872.5 1404.17 877.424 1399.25 883.499 1399.25 889.574 1399.25 894.499 1404.17 894.499 1410.25Z" stroke="#4472C4" stroke-width="3.4375" stroke-linejoin="round" stroke-miterlimit="10" fill="#4472C4"/><path d="M1098.5 1410.25C1098.5 1416.32 1093.57 1421.25 1087.5 1421.25 1081.42 1421.25 1076.5 1416.32 1076.5 1410.25 1076.5 1404.17 1081.42 1399.25 1087.5 1399.25 1093.57 1399.25 1098.5 1404.17 1098.5 1410.25Z" stroke="#4472C4" stroke-width="3.4375" stroke-linejoin="round" stroke-miterlimit="10" fill="#4472C4"/><path d="M2808.5 1410.25C2808.5 1416.32 2803.57 1421.25 2797.5 1421.25 2791.42 1421.25 2786.5 1416.32 2786.5 1410.25 2786.5 1404.17 2791.42 1399.25 2797.5 1399.25 2803.57 1399.25 2808.5 1404.17 2808.5 1410.25Z" stroke="#4472C4" stroke-width="3.4375" stroke-linejoin="round" stroke-miterlimit="10" fill="#4472C4"/><path d="M4934.5 1410.25C4934.5 1416.32 4929.57 1421.25 4923.5 1421.25 4917.42 1421.25 4912.5 1416.32 4912.5 1410.25 4912.5 1404.17 4917.42 1399.25 4923.5 1399.25 4929.57 1399.25 4934.5 1404.17 4934.5 1410.25Z" stroke="#4472C4" stroke-width="3.4375" stroke-linejoin="round" stroke-miterlimit="10" fill="#4472C4"/><path d="M3764.5 1410.25C3764.5 1416.32 3759.57 1421.25 3753.5 1421.25 3747.42 1421.25 3742.5 1416.32 3742.5 1410.25 3742.5 1404.17 3747.42 1399.25 3753.5 1399.25 3759.57 1399.25 3764.5 1404.17 3764.5 1410.25Z" stroke="#4472C4" stroke-width="3.4375" stroke-linejoin="round" stroke-miterlimit="10" fill="#4472C4"/><path d="M5406.5 1410.25C5406.5 1416.32 5401.57 1421.25 5395.5 1421.25 5389.42 1421.25 5384.5 1416.32 5384.5 1410.25 5384.5 1404.17 5389.42 1399.25 5395.5 1399.25 5401.57 1399.25 5406.5 1404.17 5406.5 1410.25Z" stroke="#4472C4" stroke-width="3.4375" stroke-linejoin="round" stroke-miterlimit="10" fill="#4472C4"/><path d="M2329.5 1410.25C2329.5 1416.32 2324.57 1421.25 2318.5 1421.25 2312.42 1421.25 2307.5 1416.32 2307.5 1410.25 2307.5 1404.17 2312.42 1399.25 2318.5 1399.25 2324.57 1399.25 2329.5 1404.17 2329.5 1410.25Z" stroke="#4472C4" stroke-width="3.4375" stroke-linejoin="round" stroke-miterlimit="10" fill="#4472C4"/><path d="M3291.5 1410.25C3291.5 1416.32 3286.57 1421.25 3280.5 1421.25 3274.42 1421.25 3269.5 1416.32 3269.5 1410.25 3269.5 1404.17 3274.42 1399.25 3280.5 1399.25 3286.57 1399.25 3291.5 1404.17 3291.5 1410.25Z" stroke="#4472C4" stroke-width="3.4375" stroke-linejoin="round" stroke-miterlimit="10" fill="#4472C4"/><path d="M3763.5 1410.25C3763.5 1416.32 3758.57 1421.25 3752.5 1421.25 3746.42 1421.25 3741.5 1416.32 3741.5 1410.25 3741.5 1404.17 3746.42 1399.25 3752.5 1399.25 3758.57 1399.25 3763.5 1404.17 3763.5 1410.25Z" stroke="#4472C4" stroke-width="3.4375" stroke-linejoin="round" stroke-miterlimit="10" fill="#4472C4"/><path d="M6155.5 1410.25C6155.5 1416.32 6150.57 1421.25 6144.5 1421.25 6138.42 1421.25 6133.5 1416.32 6133.5 1410.25 6133.5 1404.17 6138.42 1399.25 6144.5 1399.25 6150.57 1399.25 6155.5 1404.17 6155.5 1410.25Z" stroke="#4472C4" stroke-width="3.4375" stroke-linejoin="round" stroke-miterlimit="10" fill="#4472C4"/><path d="M5205.5 1409.25C5205.5 1415.32 5200.57 1420.25 5194.5 1420.25 5188.42 1420.25 5183.5 1415.32 5183.5 1409.25 5183.5 1403.17 5188.42 1398.25 5194.5 1398.25 5200.57 1398.25 5205.5 1403.17 5205.5 1409.25Z" stroke="#4472C4" stroke-width="3.4375" stroke-linejoin="round" stroke-miterlimit="10" fill="#4472C4"/><path d="M3490.5 1409.25C3490.5 1415.32 3485.57 1420.25 3479.5 1420.25 3473.42 1420.25 3468.5 1415.32 3468.5 1409.25 3468.5 1403.17 3473.42 1398.25 3479.5 1398.25 3485.57 1398.25 3490.5 1403.17 3490.5 1409.25Z" stroke="#4472C4" stroke-width="3.4375" stroke-linejoin="round" stroke-miterlimit="10" fill="#4472C4"/><path d="M6635.5 1409.25C6635.5 1415.32 6630.57 1420.25 6624.5 1420.25 6618.42 1420.25 6613.5 1415.32 6613.5 1409.25 6613.5 1403.17 6618.42 1398.25 6624.5 1398.25 6630.57 1398.25 6635.5 1403.17 6635.5 1409.25Z" stroke="#4472C4" stroke-width="3.4375" stroke-linejoin="round" stroke-miterlimit="10" fill="#4472C4"/><path d="M5677.5 1409.25C5677.5 1415.32 5672.57 1420.25 5666.5 1420.25 5660.42 1420.25 5655.5 1415.32 5655.5 1409.25 5655.5 1403.17 5660.42 1398.25 5666.5 1398.25 5672.57 1398.25 5677.5 1403.17 5677.5 1409.25Z" stroke="#4472C4" stroke-width="3.4375" stroke-linejoin="round" stroke-miterlimit="10" fill="#4472C4"/><path d="M3012.5 1409.25C3012.5 1415.32 3007.57 1420.25 3001.5 1420.25 2995.42 1420.25 2990.5 1415.32 2990.5 1409.25 2990.5 1403.17 2995.42 1398.25 3001.5 1398.25 3007.57 1398.25 3012.5 1403.17 3012.5 1409.25Z" stroke="#4472C4" stroke-width="3.4375" stroke-linejoin="round" stroke-miterlimit="10" fill="#4472C4"/><path d="M4455.5 1409.25C4455.5 1415.32 4450.57 1420.25 4444.5 1420.25 4438.42 1420.25 4433.5 1415.32 4433.5 1409.25 4433.5 1403.17 4438.42 1398.25 4444.5 1398.25 4450.57 1398.25 4455.5 1403.17 4455.5 1409.25Z" stroke="#4472C4" stroke-width="3.4375" stroke-linejoin="round" stroke-miterlimit="10" fill="#4472C4"/><path d="M1847.5 1409.25C1847.5 1415.32 1842.57 1420.25 1836.5 1420.25 1830.42 1420.25 1825.5 1415.32 1825.5 1409.25 1825.5 1403.17 1830.42 1398.25 1836.5 1398.25 1842.57 1398.25 1847.5 1403.17 1847.5 1409.25Z" stroke="#4472C4" stroke-width="3.4375" stroke-linejoin="round" stroke-miterlimit="10" fill="#4472C4"/><path d="M2055.5 1409.25C2055.5 1415.32 2050.57 1420.25 2044.5 1420.25 2038.42 1420.25 2033.5 1415.32 2033.5 1409.25 2033.5 1403.17 2038.42 1398.25 2044.5 1398.25 2050.57 1398.25 2055.5 1403.17 2055.5 1409.25Z" stroke="#4472C4" stroke-width="3.4375" stroke-linejoin="round" stroke-miterlimit="10" fill="#4472C4"/><path d="M4248.5 1409.25C4248.5 1415.32 4243.57 1420.25 4237.5 1420.25 4231.42 1420.25 4226.5 1415.32 4226.5 1409.25 4226.5 1403.17 4231.42 1398.25 4237.5 1398.25 4243.57 1398.25 4248.5 1403.17 4248.5 1409.25Z" stroke="#4472C4" stroke-width="3.4375" stroke-linejoin="round" stroke-miterlimit="10" fill="#4472C4"/><path d="M2804.5 1409.25C2804.5 1415.32 2799.57 1420.25 2793.5 1420.25 2787.42 1420.25 2782.5 1415.32 2782.5 1409.25 2782.5 1403.17 2787.42 1398.25 2793.5 1398.25 2799.57 1398.25 2804.5 1403.17 2804.5 1409.25Z" stroke="#4472C4" stroke-width="3.4375" stroke-linejoin="round" stroke-miterlimit="10" fill="#4472C4"/><path d="M5407.5 1409.25C5407.5 1415.32 5402.57 1420.25 5396.5 1420.25 5390.42 1420.25 5385.5 1415.32 5385.5 1409.25 5385.5 1403.17 5390.42 1398.25 5396.5 1398.25 5402.57 1398.25 5407.5 1403.17 5407.5 1409.25Z" stroke="#4472C4" stroke-width="3.4375" stroke-linejoin="round" stroke-miterlimit="10" fill="#4472C4"/><path d="M4718.5 1409.25C4718.5 1415.32 4713.57 1420.25 4707.5 1420.25 4701.42 1420.25 4696.5 1415.32 4696.5 1409.25 4696.5 1403.17 4701.42 1398.25 4707.5 1398.25 4713.57 1398.25 4718.5 1403.17 4718.5 1409.25Z" stroke="#4472C4" stroke-width="3.4375" stroke-linejoin="round" stroke-miterlimit="10" fill="#4472C4"/><path d="M6153.5 1409.25C6153.5 1415.32 6148.57 1420.25 6142.5 1420.25 6136.42 1420.25 6131.5 1415.32 6131.5 1409.25 6131.5 1403.17 6136.42 1398.25 6142.5 1398.25 6148.57 1398.25 6153.5 1403.17 6153.5 1409.25Z" stroke="#4472C4" stroke-width="3.4375" stroke-linejoin="round" stroke-miterlimit="10" fill="#4472C4"/><path d="M3020.5 1409.25C3020.5 1415.32 3015.57 1420.25 3009.5 1420.25 3003.42 1420.25 2998.5 1415.32 2998.5 1409.25 2998.5 1403.17 3003.42 1398.25 3009.5 1398.25 3015.57 1398.25 3020.5 1403.17 3020.5 1409.25Z" stroke="#4472C4" stroke-width="3.4375" stroke-linejoin="round" stroke-miterlimit="10" fill="#4472C4"/><path d="M1369.5 1409.25C1369.5 1415.32 1364.57 1420.25 1358.5 1420.25 1352.42 1420.25 1347.5 1415.32 1347.5 1409.25 1347.5 1403.17 1352.42 1398.25 1358.5 1398.25 1364.57 1398.25 1369.5 1403.17 1369.5 1409.25Z" stroke="#4472C4" stroke-width="3.4375" stroke-linejoin="round" stroke-miterlimit="10" fill="#4472C4"/><path d="M5683.5 1409.25C5683.5 1415.32 5678.57 1420.25 5672.5 1420.25 5666.42 1420.25 5661.5 1415.32 5661.5 1409.25 5661.5 1403.17 5666.42 1398.25 5672.5 1398.25 5678.57 1398.25 5683.5 1403.17 5683.5 1409.25Z" stroke="#4472C4" stroke-width="3.4375" stroke-linejoin="round" stroke-miterlimit="10" fill="#4472C4"/><path d="M3013.5 1409.25C3013.5 1415.32 3008.57 1420.25 3002.5 1420.25 2996.42 1420.25 2991.5 1415.32 2991.5 1409.25 2991.5 1403.17 2996.42 1398.25 3002.5 1398.25 3008.57 1398.25 3013.5 1403.17 3013.5 1409.25Z" stroke="#4472C4" stroke-width="3.4375" stroke-linejoin="round" stroke-miterlimit="10" fill="#4472C4"/><path d="M7114.5 1409.25C7114.5 1415.32 7109.57 1420.25 7103.5 1420.25 7097.42 1420.25 7092.5 1415.32 7092.5 1409.25 7092.5 1403.17 7097.42 1398.25 7103.5 1398.25 7109.57 1398.25 7114.5 1403.17 7114.5 1409.25Z" stroke="#4472C4" stroke-width="3.4375" stroke-linejoin="round" stroke-miterlimit="10" fill="#4472C4"/><path d="M3286.5 1408.25C3286.5 1414.32 3281.57 1419.25 3275.5 1419.25 3269.42 1419.25 3264.5 1414.32 3264.5 1408.25 3264.5 1402.17 3269.42 1397.25 3275.5 1397.25 3281.57 1397.25 3286.5 1402.17 3286.5 1408.25Z" stroke="#4472C4" stroke-width="3.4375" stroke-linejoin="round" stroke-miterlimit="10" fill="#4472C4"/><path d="M7118.5 1408.25C7118.5 1414.32 7113.57 1419.25 7107.5 1419.25 7101.42 1419.25 7096.5 1414.32 7096.5 1408.25 7096.5 1402.17 7101.42 1397.25 7107.5 1397.25 7113.57 1397.25 7118.5 1402.17 7118.5 1408.25Z" stroke="#4472C4" stroke-width="3.4375" stroke-linejoin="round" stroke-miterlimit="10" fill="#4472C4"/><path d="M4447.5 1408.25C4447.5 1414.32 4442.57 1419.25 4436.5 1419.25 4430.42 1419.25 4425.5 1414.32 4425.5 1408.25 4425.5 1402.17 4430.42 1397.25 4436.5 1397.25 4442.57 1397.25 4447.5 1402.17 4447.5 1408.25Z" stroke="#4472C4" stroke-width="3.4375" stroke-linejoin="round" stroke-miterlimit="10" fill="#4472C4"/><path d="M2537.5 1408.25C2537.5 1414.32 2532.57 1419.25 2526.5 1419.25 2520.42 1419.25 2515.5 1414.32 2515.5 1408.25 2515.5 1402.17 2520.42 1397.25 2526.5 1397.25 2532.57 1397.25 2537.5 1402.17 2537.5 1408.25Z" stroke="#4472C4" stroke-width="3.4375" stroke-linejoin="round" stroke-miterlimit="10" fill="#4472C4"/><path d="M1851.5 1408.25C1851.5 1414.32 1846.57 1419.25 1840.5 1419.25 1834.42 1419.25 1829.5 1414.32 1829.5 1408.25 1829.5 1402.17 1834.42 1397.25 1840.5 1397.25 1846.57 1397.25 1851.5 1402.17 1851.5 1408.25Z" stroke="#4472C4" stroke-width="3.4375" stroke-linejoin="round" stroke-miterlimit="10" fill="#4472C4"/><path d="M1101.5 1408.25C1101.5 1414.32 1096.57 1419.25 1090.5 1419.25 1084.42 1419.25 1079.5 1414.32 1079.5 1408.25 1079.5 1402.17 1084.42 1397.25 1090.5 1397.25 1096.57 1397.25 1101.5 1402.17 1101.5 1408.25Z" stroke="#4472C4" stroke-width="3.4375" stroke-linejoin="round" stroke-miterlimit="10" fill="#4472C4"/><path d="M3761.5 1408.25C3761.5 1414.32 3756.57 1419.25 3750.5 1419.25 3744.42 1419.25 3739.5 1414.32 3739.5 1408.25 3739.5 1402.17 3744.42 1397.25 3750.5 1397.25 3756.57 1397.25 3761.5 1402.17 3761.5 1408.25Z" stroke="#4472C4" stroke-width="3.4375" stroke-linejoin="round" stroke-miterlimit="10" fill="#4472C4"/><path d="M4726.5 1408.25C4726.5 1414.32 4721.57 1419.25 4715.5 1419.25 4709.42 1419.25 4704.5 1414.32 4704.5 1408.25 4704.5 1402.17 4709.42 1397.25 4715.5 1397.25 4721.57 1397.25 4726.5 1402.17 4726.5 1408.25Z" stroke="#4472C4" stroke-width="3.4375" stroke-linejoin="round" stroke-miterlimit="10" fill="#4472C4"/><path d="M2535.5 1408.25C2535.5 1414.32 2530.57 1419.25 2524.5 1419.25 2518.42 1419.25 2513.5 1414.32 2513.5 1408.25 2513.5 1402.17 2518.42 1397.25 2524.5 1397.25 2530.57 1397.25 2535.5 1402.17 2535.5 1408.25Z" stroke="#4472C4" stroke-width="3.4375" stroke-linejoin="round" stroke-miterlimit="10" fill="#4472C4"/><path d="M4243.5 1408.25C4243.5 1414.32 4238.57 1419.25 4232.5 1419.25 4226.42 1419.25 4221.5 1414.32 4221.5 1408.25 4221.5 1402.17 4226.42 1397.25 4232.5 1397.25 4238.57 1397.25 4243.5 1402.17 4243.5 1408.25Z" stroke="#4472C4" stroke-width="3.4375" stroke-linejoin="round" stroke-miterlimit="10" fill="#4472C4"/><path d="M6841.5 1408.25C6841.5 1414.32 6836.57 1419.25 6830.5 1419.25 6824.42 1419.25 6819.5 1414.32 6819.5 1408.25 6819.5 1402.17 6824.42 1397.25 6830.5 1397.25 6836.57 1397.25 6841.5 1402.17 6841.5 1408.25Z" stroke="#4472C4" stroke-width="3.4375" stroke-linejoin="round" stroke-miterlimit="10" fill="#4472C4"/><path d="M2536.5 1408.25C2536.5 1414.32 2531.57 1419.25 2525.5 1419.25 2519.42 1419.25 2514.5 1414.32 2514.5 1408.25 2514.5 1402.17 2519.42 1397.25 2525.5 1397.25 2531.57 1397.25 2536.5 1402.17 2536.5 1408.25Z" stroke="#4472C4" stroke-width="3.4375" stroke-linejoin="round" stroke-miterlimit="10" fill="#4472C4"/><path d="M5678.5 1408.25C5678.5 1414.32 5673.57 1419.25 5667.5 1419.25 5661.42 1419.25 5656.5 1414.32 5656.5 1408.25 5656.5 1402.17 5661.42 1397.25 5667.5 1397.25 5673.57 1397.25 5678.5 1402.17 5678.5 1408.25Z" stroke="#4472C4" stroke-width="3.4375" stroke-linejoin="round" stroke-miterlimit="10" fill="#4472C4"/><path d="M1099.5 1408.25C1099.5 1414.32 1094.57 1419.25 1088.5 1419.25 1082.42 1419.25 1077.5 1414.32 1077.5 1408.25 1077.5 1402.17 1082.42 1397.25 1088.5 1397.25 1094.57 1397.25 1099.5 1402.17 1099.5 1408.25Z" stroke="#4472C4" stroke-width="3.4375" stroke-linejoin="round" stroke-miterlimit="10" fill="#4472C4"/><path d="M4928.5 1408.25C4928.5 1414.32 4923.57 1419.25 4917.5 1419.25 4911.42 1419.25 4906.5 1414.32 4906.5 1408.25 4906.5 1402.17 4911.42 1397.25 4917.5 1397.25 4923.57 1397.25 4928.5 1402.17 4928.5 1408.25Z" stroke="#4472C4" stroke-width="3.4375" stroke-linejoin="round" stroke-miterlimit="10" fill="#4472C4"/><path d="M3284.5 1408.25C3284.5 1414.32 3279.57 1419.25 3273.5 1419.25 3267.42 1419.25 3262.5 1414.32 3262.5 1408.25 3262.5 1402.17 3267.42 1397.25 3273.5 1397.25 3279.57 1397.25 3284.5 1402.17 3284.5 1408.25Z" stroke="#4472C4" stroke-width="3.4375" stroke-linejoin="round" stroke-miterlimit="10" fill="#4472C4"/><path d="M1577.5 1408.25C1577.5 1414.32 1572.57 1419.25 1566.5 1419.25 1560.42 1419.25 1555.5 1414.32 1555.5 1408.25 1555.5 1402.17 1560.42 1397.25 1566.5 1397.25 1572.57 1397.25 1577.5 1402.17 1577.5 1408.25Z" stroke="#4472C4" stroke-width="3.4375" stroke-linejoin="round" stroke-miterlimit="10" fill="#4472C4"/><path d="M7111.5 1408.25C7111.5 1414.32 7106.57 1419.25 7100.5 1419.25 7094.42 1419.25 7089.5 1414.32 7089.5 1408.25 7089.5 1402.17 7094.42 1397.25 7100.5 1397.25 7106.57 1397.25 7111.5 1402.17 7111.5 1408.25Z" stroke="#4472C4" stroke-width="3.4375" stroke-linejoin="round" stroke-miterlimit="10" fill="#4472C4"/><path d="M2805.5 1408.25C2805.5 1414.32 2800.57 1419.25 2794.5 1419.25 2788.42 1419.25 2783.5 1414.32 2783.5 1408.25 2783.5 1402.17 2788.42 1397.25 2794.5 1397.25 2800.57 1397.25 2805.5 1402.17 2805.5 1408.25Z" stroke="#4472C4" stroke-width="3.4375" stroke-linejoin="round" stroke-miterlimit="10" fill="#4472C4"/><path d="M2807.5 1408.25C2807.5 1414.32 2802.57 1419.25 2796.5 1419.25 2790.42 1419.25 2785.5 1414.32 2785.5 1408.25 2785.5 1402.17 2790.42 1397.25 2796.5 1397.25 2802.57 1397.25 2807.5 1402.17 2807.5 1408.25Z" stroke="#4472C4" stroke-width="3.4375" stroke-linejoin="round" stroke-miterlimit="10" fill="#4472C4"/><path d="M4448.5 1408.25C4448.5 1414.32 4443.57 1419.25 4437.5 1419.25 4431.42 1419.25 4426.5 1414.32 4426.5 1408.25 4426.5 1402.17 4431.42 1397.25 4437.5 1397.25 4443.57 1397.25 4448.5 1402.17 4448.5 1408.25Z" stroke="#4472C4" stroke-width="3.4375" stroke-linejoin="round" stroke-miterlimit="10" fill="#4472C4"/><path d="M1848.5 1408.25C1848.5 1414.32 1843.57 1419.25 1837.5 1419.25 1831.42 1419.25 1826.5 1414.32 1826.5 1408.25 1826.5 1402.17 1831.42 1397.25 1837.5 1397.25 1843.57 1397.25 1848.5 1402.17 1848.5 1408.25Z" stroke="#4472C4" stroke-width="3.4375" stroke-linejoin="round" stroke-miterlimit="10" fill="#4472C4"/><path d="M1101.5 1408.25C1101.5 1414.32 1096.57 1419.25 1090.5 1419.25 1084.42 1419.25 1079.5 1414.32 1079.5 1408.25 1079.5 1402.17 1084.42 1397.25 1090.5 1397.25 1096.57 1397.25 1101.5 1402.17 1101.5 1408.25Z" stroke="#4472C4" stroke-width="3.4375" stroke-linejoin="round" stroke-miterlimit="10" fill="#4472C4"/><path d="M7113.5 1408.25C7113.5 1414.32 7108.57 1419.25 7102.5 1419.25 7096.42 1419.25 7091.5 1414.32 7091.5 1408.25 7091.5 1402.17 7096.42 1397.25 7102.5 1397.25 7108.57 1397.25 7113.5 1402.17 7113.5 1408.25Z" stroke="#4472C4" stroke-width="3.4375" stroke-linejoin="round" stroke-miterlimit="10" fill="#4472C4"/><path d="M5885.5 1408.25C5885.5 1414.32 5880.57 1419.25 5874.5 1419.25 5868.42 1419.25 5863.5 1414.32 5863.5 1408.25 5863.5 1402.17 5868.42 1397.25 5874.5 1397.25 5880.57 1397.25 5885.5 1402.17 5885.5 1408.25Z" stroke="#4472C4" stroke-width="3.4375" stroke-linejoin="round" stroke-miterlimit="10" fill="#4472C4"/><path d="M4927.5 1408.25C4927.5 1414.32 4922.57 1419.25 4916.5 1419.25 4910.42 1419.25 4905.5 1414.32 4905.5 1408.25 4905.5 1402.17 4910.42 1397.25 4916.5 1397.25 4922.57 1397.25 4927.5 1402.17 4927.5 1408.25Z" stroke="#4472C4" stroke-width="3.4375" stroke-linejoin="round" stroke-miterlimit="10" fill="#4472C4"/><path d="M3285.5 1408.25C3285.5 1414.32 3280.57 1419.25 3274.5 1419.25 3268.42 1419.25 3263.5 1414.32 3263.5 1408.25 3263.5 1402.17 3268.42 1397.25 3274.5 1397.25 3280.57 1397.25 3285.5 1402.17 3285.5 1408.25Z" stroke="#4472C4" stroke-width="3.4375" stroke-linejoin="round" stroke-miterlimit="10" fill="#4472C4"/><path d="M5198.5 1408.25C5198.5 1414.32 5193.57 1419.25 5187.5 1419.25 5181.42 1419.25 5176.5 1414.32 5176.5 1408.25 5176.5 1402.17 5181.42 1397.25 5187.5 1397.25 5193.57 1397.25 5198.5 1402.17 5198.5 1408.25Z" stroke="#4472C4" stroke-width="3.4375" stroke-linejoin="round" stroke-miterlimit="10" fill="#4472C4"/><path d="M3971.5 1408.25C3971.5 1414.32 3966.57 1419.25 3960.5 1419.25 3954.42 1419.25 3949.5 1414.32 3949.5 1408.25 3949.5 1402.17 3954.42 1397.25 3960.5 1397.25 3966.57 1397.25 3971.5 1402.17 3971.5 1408.25Z" stroke="#4472C4" stroke-width="3.4375" stroke-linejoin="round" stroke-miterlimit="10" fill="#4472C4"/><path d="M3493.5 1408.25C3493.5 1414.32 3488.57 1419.25 3482.5 1419.25 3476.42 1419.25 3471.5 1414.32 3471.5 1408.25 3471.5 1402.17 3476.42 1397.25 3482.5 1397.25 3488.57 1397.25 3493.5 1402.17 3493.5 1408.25Z" stroke="#4472C4" stroke-width="3.4375" stroke-linejoin="round" stroke-miterlimit="10" fill="#4472C4"/><path d="M7319.5 1408.25C7319.5 1414.32 7314.57 1419.25 7308.5 1419.25 7302.42 1419.25 7297.5 1414.32 7297.5 1408.25 7297.5 1402.17 7302.42 1397.25 7308.5 1397.25 7314.57 1397.25 7319.5 1402.17 7319.5 1408.25Z" stroke="#4472C4" stroke-width="3.4375" stroke-linejoin="round" stroke-miterlimit="10" fill="#4472C4"/><path d="M1370.5 1408.25C1370.5 1414.32 1365.57 1419.25 1359.5 1419.25 1353.42 1419.25 1348.5 1414.32 1348.5 1408.25 1348.5 1402.17 1353.42 1397.25 1359.5 1397.25 1365.57 1397.25 1370.5 1402.17 1370.5 1408.25Z" stroke="#4472C4" stroke-width="3.4375" stroke-linejoin="round" stroke-miterlimit="10" fill="#4472C4"/><path d="M2058.5 1408.25C2058.5 1414.32 2053.57 1419.25 2047.5 1419.25 2041.42 1419.25 2036.5 1414.32 2036.5 1408.25 2036.5 1402.17 2041.42 1397.25 2047.5 1397.25 2053.57 1397.25 2058.5 1402.17 2058.5 1408.25Z" stroke="#4472C4" stroke-width="3.4375" stroke-linejoin="round" stroke-miterlimit="10" fill="#4472C4"/><path d="M4242.5 1408.25C4242.5 1414.32 4237.57 1419.25 4231.5 1419.25 4225.42 1419.25 4220.5 1414.32 4220.5 1408.25 4220.5 1402.17 4225.42 1397.25 4231.5 1397.25 4237.57 1397.25 4242.5 1402.17 4242.5 1408.25Z" stroke="#4472C4" stroke-width="3.4375" stroke-linejoin="round" stroke-miterlimit="10" fill="#4472C4"/><path d="M2534.5 1408.25C2534.5 1414.32 2529.57 1419.25 2523.5 1419.25 2517.42 1419.25 2512.5 1414.32 2512.5 1408.25 2512.5 1402.17 2517.42 1397.25 2523.5 1397.25 2529.57 1397.25 2534.5 1402.17 2534.5 1408.25Z" stroke="#4472C4" stroke-width="3.4375" stroke-linejoin="round" stroke-miterlimit="10" fill="#4472C4"/><path d="M2328.5 1408.25C2328.5 1414.32 2323.57 1419.25 2317.5 1419.25 2311.42 1419.25 2306.5 1414.32 2306.5 1408.25 2306.5 1402.17 2311.42 1397.25 2317.5 1397.25 2323.57 1397.25 2328.5 1402.17 2328.5 1408.25Z" stroke="#4472C4" stroke-width="3.4375" stroke-linejoin="round" stroke-miterlimit="10" fill="#4472C4"/><path d="M1850.5 1408.25C1850.5 1414.32 1845.57 1419.25 1839.5 1419.25 1833.42 1419.25 1828.5 1414.32 1828.5 1408.25 1828.5 1402.17 1833.42 1397.25 1839.5 1397.25 1845.57 1397.25 1850.5 1402.17 1850.5 1408.25Z" stroke="#4472C4" stroke-width="3.4375" stroke-linejoin="round" stroke-miterlimit="10" fill="#4472C4"/><path d="M5405.5 1408.25C5405.5 1414.32 5400.57 1419.25 5394.5 1419.25 5388.42 1419.25 5383.5 1414.32 5383.5 1408.25 5383.5 1402.17 5388.42 1397.25 5394.5 1397.25 5400.57 1397.25 5405.5 1402.17 5405.5 1408.25Z" stroke="#4472C4" stroke-width="3.4375" stroke-linejoin="round" stroke-miterlimit="10" fill="#4472C4"/><path d="M5676.5 1408.25C5676.5 1414.32 5671.57 1419.25 5665.5 1419.25 5659.42 1419.25 5654.5 1414.32 5654.5 1408.25 5654.5 1402.17 5659.42 1397.25 5665.5 1397.25 5671.57 1397.25 5676.5 1402.17 5676.5 1408.25Z" stroke="#4472C4" stroke-width="3.4375" stroke-linejoin="round" stroke-miterlimit="10" fill="#4472C4"/><path d="M5199.5 1408.25C5199.5 1414.32 5194.57 1419.25 5188.5 1419.25 5182.42 1419.25 5177.5 1414.32 5177.5 1408.25 5177.5 1402.17 5182.42 1397.25 5188.5 1397.25 5194.57 1397.25 5199.5 1402.17 5199.5 1408.25Z" stroke="#4472C4" stroke-width="3.4375" stroke-linejoin="round" stroke-miterlimit="10" fill="#4472C4"/><path d="M5407.5 1408.25C5407.5 1414.32 5402.57 1419.25 5396.5 1419.25 5390.42 1419.25 5385.5 1414.32 5385.5 1408.25 5385.5 1402.17 5390.42 1397.25 5396.5 1397.25 5402.57 1397.25 5407.5 1402.17 5407.5 1408.25Z" stroke="#4472C4" stroke-width="3.4375" stroke-linejoin="round" stroke-miterlimit="10" fill="#4472C4"/><path d="M5884.5 1408.25C5884.5 1414.32 5879.57 1419.25 5873.5 1419.25 5867.42 1419.25 5862.5 1414.32 5862.5 1408.25 5862.5 1402.17 5867.42 1397.25 5873.5 1397.25 5879.57 1397.25 5884.5 1402.17 5884.5 1408.25Z" stroke="#4472C4" stroke-width="3.4375" stroke-linejoin="round" stroke-miterlimit="10" fill="#4472C4"/><path d="M2327.5 1408.25C2327.5 1414.32 2322.57 1419.25 2316.5 1419.25 2310.42 1419.25 2305.5 1414.32 2305.5 1408.25 2305.5 1402.17 2310.42 1397.25 2316.5 1397.25 2322.57 1397.25 2327.5 1402.17 2327.5 1408.25Z" stroke="#4472C4" stroke-width="3.4375" stroke-linejoin="round" stroke-miterlimit="10" fill="#4472C4"/><path d="M1579.5 1408.25C1579.5 1414.32 1574.57 1419.25 1568.5 1419.25 1562.42 1419.25 1557.5 1414.32 1557.5 1408.25 1557.5 1402.17 1562.42 1397.25 1568.5 1397.25 1574.57 1397.25 1579.5 1402.17 1579.5 1408.25Z" stroke="#4472C4" stroke-width="3.4375" stroke-linejoin="round" stroke-miterlimit="10" fill="#4472C4"/><path d="M6635.5 1408.25C6635.5 1414.32 6630.57 1419.25 6624.5 1419.25 6618.42 1419.25 6613.5 1414.32 6613.5 1408.25 6613.5 1402.17 6618.42 1397.25 6624.5 1397.25 6630.57 1397.25 6635.5 1402.17 6635.5 1408.25Z" stroke="#4472C4" stroke-width="3.4375" stroke-linejoin="round" stroke-miterlimit="10" fill="#4472C4"/><path d="M893.499 1408.25C893.499 1414.32 888.574 1419.25 882.499 1419.25 876.424 1419.25 871.5 1414.32 871.5 1408.25 871.5 1402.17 876.424 1397.25 882.499 1397.25 888.574 1397.25 893.499 1402.17 893.499 1408.25Z" stroke="#4472C4" stroke-width="3.4375" stroke-linejoin="round" stroke-miterlimit="10" fill="#4472C4"/><path d="M3970.5 1408.25C3970.5 1414.32 3965.57 1419.25 3959.5 1419.25 3953.42 1419.25 3948.5 1414.32 3948.5 1408.25 3948.5 1402.17 3953.42 1397.25 3959.5 1397.25 3965.57 1397.25 3970.5 1402.17 3970.5 1408.25Z" stroke="#4472C4" stroke-width="3.4375" stroke-linejoin="round" stroke-miterlimit="10" fill="#4472C4"/><path d="M1372.5 1408.25C1372.5 1414.32 1367.57 1419.25 1361.5 1419.25 1355.42 1419.25 1350.5 1414.32 1350.5 1408.25 1350.5 1402.17 1355.42 1397.25 1361.5 1397.25 1367.57 1397.25 1372.5 1402.17 1372.5 1408.25Z" stroke="#4472C4" stroke-width="3.4375" stroke-linejoin="round" stroke-miterlimit="10" fill="#4472C4"/><path d="M891.499 1408.25C891.499 1414.32 886.574 1419.25 880.499 1419.25 874.425 1419.25 869.5 1414.32 869.5 1408.25 869.5 1402.17 874.425 1397.25 880.499 1397.25 886.574 1397.25 891.499 1402.17 891.499 1408.25Z" stroke="#4472C4" stroke-width="3.4375" stroke-linejoin="round" stroke-miterlimit="10" fill="#4472C4"/><path d="M3764.5 1408.25C3764.5 1414.32 3759.57 1419.25 3753.5 1419.25 3747.42 1419.25 3742.5 1414.32 3742.5 1408.25 3742.5 1402.17 3747.42 1397.25 3753.5 1397.25 3759.57 1397.25 3764.5 1402.17 3764.5 1408.25Z" stroke="#4472C4" stroke-width="3.4375" stroke-linejoin="round" stroke-miterlimit="10" fill="#4472C4"/><path d="M2056.5 1408.25C2056.5 1414.32 2051.57 1419.25 2045.5 1419.25 2039.42 1419.25 2034.5 1414.32 2034.5 1408.25 2034.5 1402.17 2039.42 1397.25 2045.5 1397.25 2051.57 1397.25 2056.5 1402.17 2056.5 1408.25Z" stroke="#4472C4" stroke-width="3.4375" stroke-linejoin="round" stroke-miterlimit="10" fill="#4472C4"/><path d="M2056.5 1408.25C2056.5 1414.32 2051.57 1419.25 2045.5 1419.25 2039.42 1419.25 2034.5 1414.32 2034.5 1408.25 2034.5 1402.17 2039.42 1397.25 2045.5 1397.25 2051.57 1397.25 2056.5 1402.17 2056.5 1408.25Z" stroke="#4472C4" stroke-width="3.4375" stroke-linejoin="round" stroke-miterlimit="10" fill="#4472C4"/><path d="M6633.5 1408.25C6633.5 1414.32 6628.57 1419.25 6622.5 1419.25 6616.42 1419.25 6611.5 1414.32 6611.5 1408.25 6611.5 1402.17 6616.42 1397.25 6622.5 1397.25 6628.57 1397.25 6633.5 1402.17 6633.5 1408.25Z" stroke="#4472C4" stroke-width="3.4375" stroke-linejoin="round" stroke-miterlimit="10" fill="#4472C4"/><path d="M3762.5 1408.25C3762.5 1414.32 3757.57 1419.25 3751.5 1419.25 3745.42 1419.25 3740.5 1414.32 3740.5 1408.25 3740.5 1402.17 3745.42 1397.25 3751.5 1397.25 3757.57 1397.25 3762.5 1402.17 3762.5 1408.25Z" stroke="#4472C4" stroke-width="3.4375" stroke-linejoin="round" stroke-miterlimit="10" fill="#4472C4"/><path d="M4450.5 1408.25C4450.5 1414.32 4445.57 1419.25 4439.5 1419.25 4433.42 1419.25 4428.5 1414.32 4428.5 1408.25 4428.5 1402.17 4433.42 1397.25 4439.5 1397.25 4445.57 1397.25 4450.5 1402.17 4450.5 1408.25Z" stroke="#4472C4" stroke-width="3.4375" stroke-linejoin="round" stroke-miterlimit="10" fill="#4472C4"/><path d="M3491.5 1408.25C3491.5 1414.32 3486.57 1419.25 3480.5 1419.25 3474.42 1419.25 3469.5 1414.32 3469.5 1408.25 3469.5 1402.17 3474.42 1397.25 3480.5 1397.25 3486.57 1397.25 3491.5 1402.17 3491.5 1408.25Z" stroke="#4472C4" stroke-width="3.4375" stroke-linejoin="round" stroke-miterlimit="10" fill="#4472C4"/><path d="M3013.5 1408.25C3013.5 1414.32 3008.57 1419.25 3002.5 1419.25 2996.42 1419.25 2991.5 1414.32 2991.5 1408.25 2991.5 1402.17 2996.42 1397.25 3002.5 1397.25 3008.57 1397.25 3013.5 1402.17 3013.5 1408.25Z" stroke="#4472C4" stroke-width="3.4375" stroke-linejoin="round" stroke-miterlimit="10" fill="#4472C4"/><path d="M6842.5 1408.25C6842.5 1414.32 6837.57 1419.25 6831.5 1419.25 6825.42 1419.25 6820.5 1414.32 6820.5 1408.25 6820.5 1402.17 6825.42 1397.25 6831.5 1397.25 6837.57 1397.25 6842.5 1402.17 6842.5 1408.25Z" stroke="#4472C4" stroke-width="3.4375" stroke-linejoin="round" stroke-miterlimit="10" fill="#4472C4"/><path d="M6156.5 1408.25C6156.5 1414.32 6151.57 1419.25 6145.5 1419.25 6139.42 1419.25 6134.5 1414.32 6134.5 1408.25 6134.5 1402.17 6139.42 1397.25 6145.5 1397.25 6151.57 1397.25 6156.5 1402.17 6156.5 1408.25Z" stroke="#4472C4" stroke-width="3.4375" stroke-linejoin="round" stroke-miterlimit="10" fill="#4472C4"/><path d="M3015.5 1408.25C3015.5 1414.32 3010.57 1419.25 3004.5 1419.25 2998.42 1419.25 2993.5 1414.32 2993.5 1408.25 2993.5 1402.17 2998.42 1397.25 3004.5 1397.25 3010.57 1397.25 3015.5 1402.17 3015.5 1408.25Z" stroke="#4472C4" stroke-width="3.4375" stroke-linejoin="round" stroke-miterlimit="10" fill="#4472C4"/><path d="M4241.5 1408.25C4241.5 1414.32 4236.57 1419.25 4230.5 1419.25 4224.42 1419.25 4219.5 1414.32 4219.5 1408.25 4219.5 1402.17 4224.42 1397.25 4230.5 1397.25 4236.57 1397.25 4241.5 1402.17 4241.5 1408.25Z" stroke="#4472C4" stroke-width="3.4375" stroke-linejoin="round" stroke-miterlimit="10" fill="#4472C4"/><path d="M4241.5 1408.25C4241.5 1414.32 4236.57 1419.25 4230.5 1419.25 4224.42 1419.25 4219.5 1414.32 4219.5 1408.25 4219.5 1402.17 4224.42 1397.25 4230.5 1397.25 4236.57 1397.25 4241.5 1402.17 4241.5 1408.25Z" stroke="#4472C4" stroke-width="3.4375" stroke-linejoin="round" stroke-miterlimit="10" fill="#4472C4"/><path d="M3015.5 1408.25C3015.5 1414.32 3010.57 1419.25 3004.5 1419.25 2998.42 1419.25 2993.5 1414.32 2993.5 1408.25 2993.5 1402.17 2998.42 1397.25 3004.5 1397.25 3010.57 1397.25 3015.5 1402.17 3015.5 1408.25Z" stroke="#4472C4" stroke-width="3.4375" stroke-linejoin="round" stroke-miterlimit="10" fill="#4472C4"/><path d="M1099.5 1408.25C1099.5 1414.32 1094.57 1419.25 1088.5 1419.25 1082.42 1419.25 1077.5 1414.32 1077.5 1408.25 1077.5 1402.17 1082.42 1397.25 1088.5 1397.25 1094.57 1397.25 1099.5 1402.17 1099.5 1408.25Z" stroke="#4472C4" stroke-width="3.4375" stroke-linejoin="round" stroke-miterlimit="10" fill="#4472C4"/><path d="M3970.5 1408.25C3970.5 1414.32 3965.57 1419.25 3959.5 1419.25 3953.42 1419.25 3948.5 1414.32 3948.5 1408.25 3948.5 1402.17 3953.42 1397.25 3959.5 1397.25 3965.57 1397.25 3970.5 1402.17 3970.5 1408.25Z" stroke="#4472C4" stroke-width="3.4375" stroke-linejoin="round" stroke-miterlimit="10" fill="#4472C4"/><path d="M1584.5 1408.25C1584.5 1414.32 1579.57 1419.25 1573.5 1419.25 1567.42 1419.25 1562.5 1414.32 1562.5 1408.25 1562.5 1402.17 1567.42 1397.25 1573.5 1397.25 1579.57 1397.25 1584.5 1402.17 1584.5 1408.25Z" stroke="#4472C4" stroke-width="3.4375" stroke-linejoin="round" stroke-miterlimit="10" fill="#4472C4"/><path d="M7112.5 1408.25C7112.5 1414.32 7107.57 1419.25 7101.5 1419.25 7095.42 1419.25 7090.5 1414.32 7090.5 1408.25 7090.5 1402.17 7095.42 1397.25 7101.5 1397.25 7107.57 1397.25 7112.5 1402.17 7112.5 1408.25Z" stroke="#4472C4" stroke-width="3.4375" stroke-linejoin="round" stroke-miterlimit="10" fill="#4472C4"/><path d="M7318.5 1407.25C7318.5 1413.32 7313.57 1418.25 7307.5 1418.25 7301.42 1418.25 7296.5 1413.32 7296.5 1407.25 7296.5 1401.17 7301.42 1396.25 7307.5 1396.25 7313.57 1396.25 7318.5 1401.17 7318.5 1407.25Z" stroke="#4472C4" stroke-width="3.4375" stroke-linejoin="round" stroke-miterlimit="10" fill="#4472C4"/><path d="M3977.5 1407.25C3977.5 1413.32 3972.57 1418.25 3966.5 1418.25 3960.42 1418.25 3955.5 1413.32 3955.5 1407.25 3955.5 1401.17 3960.42 1396.25 3966.5 1396.25 3972.57 1396.25 3977.5 1401.17 3977.5 1407.25Z" stroke="#4472C4" stroke-width="3.4375" stroke-linejoin="round" stroke-miterlimit="10" fill="#4472C4"/></g><g clip-path="url(#clip6)"><text fill="#595959" font-family="Calibri,Calibri_MSFontService,sans-serif" font-weight="400" font-size="41" transform="matrix(1 0 0 1 820.449 2075)">0</text></g><g clip-path="url(#clip7)"><text fill="#595959" font-family="Calibri,Calibri_MSFontService,sans-serif" font-weight="400" font-size="41" transform="matrix(1 0 0 1 789.145 1993)">0.1</text></g><g clip-path="url(#clip8)"><text fill="#595959" font-family="Calibri,Calibri_MSFontService,sans-serif" font-weight="400" font-size="41" transform="matrix(1 0 0 1 789.145 1910)">0.2</text></g><g clip-path="url(#clip9)"><text fill="#595959" font-family="Calibri,Calibri_MSFontService,sans-serif" font-weight="400" font-size="41" transform="matrix(1 0 0 1 789.145 1828)">0.3</text></g><g clip-path="url(#clip10)"><text fill="#595959" font-family="Calibri,Calibri_MSFontService,sans-serif" font-weight="400" font-size="41" transform="matrix(1 0 0 1 789.145 1745)">0.4</text></g><g clip-path="url(#clip11)"><text fill="#595959" font-family="Calibri,Calibri_MSFontService,sans-serif" font-weight="400" font-size="41" transform="matrix(1 0 0 1 789.145 1663)">0.5</text></g><g clip-path="url(#clip12)"><text fill="#595959" font-family="Calibri,Calibri_MSFontService,sans-serif" font-weight="400" font-size="41" transform="matrix(1 0 0 1 789.145 1580)">0.6</text></g><g clip-path="url(#clip13)"><text fill="#595959" font-family="Calibri,Calibri_MSFontService,sans-serif" font-weight="400" font-size="41" transform="matrix(1 0 0 1 789.145 1498)">0.7</text></g><g clip-path="url(#clip14)"><text fill="#595959" font-family="Calibri,Calibri_MSFontService,sans-serif" font-weight="400" font-size="41" transform="matrix(1 0 0 1 789.145 1415)">0.8</text></g><g clip-path="url(#clip15)"><text fill="#595959" font-family="Calibri,Calibri_MSFontService,sans-serif" font-weight="400" font-size="41" transform="matrix(1 0 0 1 789.145 1333)">0.9</text></g><g clip-path="url(#clip16)"><text fill="#595959" font-family="Calibri,Calibri_MSFontService,sans-serif" font-weight="400" font-size="41" transform="matrix(1 0 0 1 869.166 2129)">0</text></g><g clip-path="url(#clip17)"><text fill="#595959" font-family="Calibri,Calibri_MSFontService,sans-serif" font-weight="400" font-size="41" transform="matrix(1 0 0 1 2010.55 2129)">2000</text></g><g clip-path="url(#clip18)"><text fill="#595959" font-family="Calibri,Calibri_MSFontService,sans-serif" font-weight="400" font-size="41" transform="matrix(1 0 0 1 3183.28 2129)">4000</text></g><g clip-path="url(#clip19)"><text fill="#595959" font-family="Calibri,Calibri_MSFontService,sans-serif" font-weight="400" font-size="41" transform="matrix(1 0 0 1 4356.01 2129)">6000</text></g><g clip-path="url(#clip20)"><text fill="#595959" font-family="Calibri,Calibri_MSFontService,sans-serif" font-weight="400" font-size="41" transform="matrix(1 0 0 1 5528.74 2129)">8000</text></g><g clip-path="url(#clip21)"><text fill="#595959" font-family="Calibri,Calibri_MSFontService,sans-serif" font-weight="400" font-size="41" transform="matrix(1 0 0 1 6691.02 2129)">10000</text></g><g clip-path="url(#clip22)"><text fill="#595959" font-family="Calibri,Calibri_MSFontService,sans-serif" font-weight="400" font-size="41" transform="matrix(1 0 0 1 7863.76 2129)">12000</text></g><g clip-path="url(#clip23)"><text fill="#595959" font-family="DengXian,DengXian_MSFontService,sans-serif" font-weight="400" font-size="46" transform="matrix(6.12323e-17 -1 1 6.12323e-17 757.291 1784)"></text></g><g clip-path="url(#clip24)"><text fill="#595959" font-family="DengXian,DengXian_MSFontService,sans-serif" font-weight="400" font-size="46" transform="matrix(1 0 0 1 4283.23 2198)"></text></g><rect x="656.5" y="1271.5" width="7363" height="1002" stroke="#D9D9D9" stroke-width="3.4375" stroke-linejoin="round" stroke-miterlimit="10" fill="none"/></g></svg>